%TF.GenerationSoftware,KiCad,Pcbnew,7.0.6*%
%TF.CreationDate,2023-11-28T22:22:28+05:30*%
%TF.ProjectId,LM386_Board,4c4d3338-365f-4426-9f61-72642e6b6963,v01*%
%TF.SameCoordinates,Original*%
%TF.FileFunction,Copper,L2,Bot*%
%TF.FilePolarity,Positive*%
%FSLAX46Y46*%
G04 Gerber Fmt 4.6, Leading zero omitted, Abs format (unit mm)*
G04 Created by KiCad (PCBNEW 7.0.6) date 2023-11-28 22:22:28*
%MOMM*%
%LPD*%
G01*
G04 APERTURE LIST*
%ADD10C,0.254000*%
%TA.AperFunction,NonConductor*%
%ADD11C,0.254000*%
%TD*%
%TA.AperFunction,ComponentPad*%
%ADD12R,2.200000X2.200000*%
%TD*%
%TA.AperFunction,ComponentPad*%
%ADD13O,2.200000X2.200000*%
%TD*%
%TA.AperFunction,ComponentPad*%
%ADD14R,1.600000X1.600000*%
%TD*%
%TA.AperFunction,ComponentPad*%
%ADD15O,1.600000X1.600000*%
%TD*%
%TA.AperFunction,ComponentPad*%
%ADD16C,1.600000*%
%TD*%
%TA.AperFunction,ComponentPad*%
%ADD17R,1.400000X1.400000*%
%TD*%
%TA.AperFunction,ComponentPad*%
%ADD18C,1.400000*%
%TD*%
%TA.AperFunction,ComponentPad*%
%ADD19C,2.400000*%
%TD*%
%TA.AperFunction,ComponentPad*%
%ADD20R,1.200000X1.200000*%
%TD*%
%TA.AperFunction,ComponentPad*%
%ADD21C,1.200000*%
%TD*%
%TA.AperFunction,ComponentPad*%
%ADD22R,2.000000X2.000000*%
%TD*%
%TA.AperFunction,ComponentPad*%
%ADD23C,2.000000*%
%TD*%
%TA.AperFunction,Conductor*%
%ADD24C,0.762000*%
%TD*%
%TA.AperFunction,Conductor*%
%ADD25C,0.254000*%
%TD*%
G04 APERTURE END LIST*
D10*
D11*
X181515466Y-124460701D02*
X181213085Y-125307368D01*
X181213085Y-125307368D02*
X180910704Y-124460701D01*
X180184990Y-124037368D02*
X180064037Y-124037368D01*
X180064037Y-124037368D02*
X179943085Y-124097844D01*
X179943085Y-124097844D02*
X179882609Y-124158320D01*
X179882609Y-124158320D02*
X179822133Y-124279272D01*
X179822133Y-124279272D02*
X179761656Y-124521177D01*
X179761656Y-124521177D02*
X179761656Y-124823558D01*
X179761656Y-124823558D02*
X179822133Y-125065463D01*
X179822133Y-125065463D02*
X179882609Y-125186415D01*
X179882609Y-125186415D02*
X179943085Y-125246892D01*
X179943085Y-125246892D02*
X180064037Y-125307368D01*
X180064037Y-125307368D02*
X180184990Y-125307368D01*
X180184990Y-125307368D02*
X180305942Y-125246892D01*
X180305942Y-125246892D02*
X180366418Y-125186415D01*
X180366418Y-125186415D02*
X180426895Y-125065463D01*
X180426895Y-125065463D02*
X180487371Y-124823558D01*
X180487371Y-124823558D02*
X180487371Y-124521177D01*
X180487371Y-124521177D02*
X180426895Y-124279272D01*
X180426895Y-124279272D02*
X180366418Y-124158320D01*
X180366418Y-124158320D02*
X180305942Y-124097844D01*
X180305942Y-124097844D02*
X180184990Y-124037368D01*
X178552132Y-125307368D02*
X179277847Y-125307368D01*
X178914990Y-125307368D02*
X178914990Y-124037368D01*
X178914990Y-124037368D02*
X179035942Y-124218796D01*
X179035942Y-124218796D02*
X179156894Y-124339749D01*
X179156894Y-124339749D02*
X179277847Y-124400225D01*
D12*
%TO.P,D1,1,K*%
%TO.N,VCC*%
X158953200Y-88493600D03*
D13*
%TO.P,D1,2,A*%
%TO.N,Net-(D1-A)*%
X148793200Y-88493600D03*
%TD*%
D14*
%TO.P,U1,1,GAIN*%
%TO.N,unconnected-(U1-GAIN-Pad1)*%
X163484400Y-96631600D03*
D15*
%TO.P,U1,2,-*%
%TO.N,Net-(U1--)*%
X163484400Y-99171600D03*
%TO.P,U1,3,+*%
%TO.N,Net-(U1-+)*%
X163484400Y-101711600D03*
%TO.P,U1,4,GND*%
%TO.N,GND*%
X163484400Y-104251600D03*
%TO.P,U1,5*%
%TO.N,Net-(C3-Pad1)*%
X171104400Y-104251600D03*
%TO.P,U1,6,V+*%
%TO.N,VCC*%
X171104400Y-101711600D03*
%TO.P,U1,7,BYPASS*%
%TO.N,Net-(U1-BYPASS)*%
X171104400Y-99171600D03*
%TO.P,U1,8,GAIN*%
%TO.N,unconnected-(U1-GAIN-Pad8)*%
X171104400Y-96631600D03*
%TD*%
D16*
%TO.P,R1,1*%
%TO.N,Net-(J1-PadR)*%
X152400000Y-94654400D03*
D15*
%TO.P,R1,2*%
%TO.N,Net-(C6-Pad1)*%
X160020000Y-94654400D03*
%TD*%
D16*
%TO.P,R3,1*%
%TO.N,Net-(C4-Pad1)*%
X159961000Y-103102400D03*
D15*
%TO.P,R3,2*%
%TO.N,Net-(C3-Pad1)*%
X152341000Y-103102400D03*
%TD*%
D17*
%TO.P,J3,1,Pin_1*%
%TO.N,Net-(J3-Pin_1)*%
X140843000Y-120605000D03*
D18*
%TO.P,J3,2,Pin_2*%
%TO.N,GND*%
X137033000Y-120605000D03*
%TD*%
D19*
%TO.P,C5,1*%
%TO.N,Net-(U1--)*%
X176791000Y-121793000D03*
%TO.P,C5,2*%
%TO.N,GND*%
X161791000Y-121793000D03*
%TD*%
D16*
%TO.P,C4,1*%
%TO.N,Net-(C4-Pad1)*%
X164886000Y-115951000D03*
%TO.P,C4,2*%
%TO.N,GND*%
X169886000Y-115951000D03*
%TD*%
%TO.P,C7,1*%
%TO.N,GND*%
X164759000Y-110109000D03*
%TO.P,C7,2*%
%TO.N,Net-(U1-+)*%
X169759000Y-110109000D03*
%TD*%
D17*
%TO.P,J2,1,Pin_1*%
%TO.N,Net-(D1-A)*%
X136880600Y-89453000D03*
D18*
%TO.P,J2,2,Pin_2*%
%TO.N,GND*%
X140690600Y-89453000D03*
%TD*%
D20*
%TO.P,C2,1*%
%TO.N,Net-(U1-BYPASS)*%
X177165000Y-94654401D03*
D21*
%TO.P,C2,2*%
%TO.N,GND*%
X177165000Y-96154401D03*
%TD*%
D16*
%TO.P,R2,1*%
%TO.N,Net-(J1-PadT)*%
X152400000Y-98704400D03*
D15*
%TO.P,R2,2*%
%TO.N,Net-(C6-Pad1)*%
X160020000Y-98704400D03*
%TD*%
D22*
%TO.P,C3,1*%
%TO.N,Net-(C3-Pad1)*%
X154860000Y-118999000D03*
D23*
%TO.P,C3,2*%
%TO.N,Net-(J3-Pin_1)*%
X149860000Y-118999000D03*
%TD*%
D19*
%TO.P,C6,1*%
%TO.N,Net-(C6-Pad1)*%
X164019200Y-88290400D03*
%TO.P,C6,2*%
%TO.N,Net-(U1-+)*%
X179019200Y-88290400D03*
%TD*%
%TO.P,C1,1*%
%TO.N,GND*%
X177412000Y-100196000D03*
%TO.P,C1,2*%
%TO.N,VCC*%
X177412000Y-115196000D03*
%TD*%
D24*
%TO.N,VCC*%
X167767000Y-98374200D02*
X171104400Y-101711600D01*
X160883600Y-88493600D02*
X167767000Y-95377000D01*
X158953200Y-88493600D02*
X160883600Y-88493600D01*
X167767000Y-95377000D02*
X167767000Y-98374200D01*
%TO.N,Net-(C4-Pad1)*%
X159961000Y-103102400D02*
X159961000Y-111026000D01*
X159961000Y-111026000D02*
X164886000Y-115951000D01*
D25*
%TO.N,Net-(U1--)*%
X163484400Y-99171600D02*
X172720000Y-108407200D01*
X172720000Y-117722000D02*
X176791000Y-121793000D01*
X172720000Y-108407200D02*
X172720000Y-117722000D01*
%TO.N,Net-(U1-+)*%
X163484400Y-101711600D02*
X169759000Y-107986200D01*
X169759000Y-107986200D02*
X169759000Y-110109000D01*
%TD*%
%TA.AperFunction,Conductor*%
%TO.N,GND*%
G36*
X183584539Y-83078185D02*
G01*
X183630294Y-83130989D01*
X183641500Y-83182500D01*
X183641500Y-126367500D01*
X183621815Y-126434539D01*
X183569011Y-126480294D01*
X183517500Y-126491500D01*
X127632500Y-126491500D01*
X127565461Y-126471815D01*
X127519706Y-126419011D01*
X127508500Y-126367500D01*
X127508500Y-121611880D01*
X136379672Y-121611880D01*
X136495821Y-121683797D01*
X136495822Y-121683798D01*
X136703195Y-121764134D01*
X136921807Y-121805000D01*
X137144193Y-121805000D01*
X137362809Y-121764133D01*
X137570168Y-121683801D01*
X137570181Y-121683795D01*
X137686326Y-121611879D01*
X137427317Y-121352870D01*
X139642500Y-121352870D01*
X139642501Y-121352876D01*
X139648908Y-121412483D01*
X139699202Y-121547328D01*
X139699206Y-121547335D01*
X139785452Y-121662544D01*
X139785455Y-121662547D01*
X139900664Y-121748793D01*
X139900671Y-121748797D01*
X140035517Y-121799091D01*
X140035516Y-121799091D01*
X140042444Y-121799835D01*
X140095127Y-121805500D01*
X141590872Y-121805499D01*
X141650483Y-121799091D01*
X141666803Y-121793004D01*
X160086233Y-121793004D01*
X160105273Y-122047079D01*
X160161968Y-122295477D01*
X160161973Y-122295494D01*
X160255058Y-122532671D01*
X160255057Y-122532671D01*
X160382457Y-122753332D01*
X160424452Y-122805993D01*
X160424453Y-122805993D01*
X161228226Y-122002219D01*
X161266901Y-122095588D01*
X161363075Y-122220925D01*
X161488412Y-122317099D01*
X161581779Y-122355772D01*
X160777813Y-123159737D01*
X160938623Y-123269375D01*
X160938624Y-123269376D01*
X161168176Y-123379921D01*
X161168174Y-123379921D01*
X161411652Y-123455024D01*
X161411658Y-123455026D01*
X161663595Y-123492999D01*
X161663604Y-123493000D01*
X161918396Y-123493000D01*
X161918404Y-123492999D01*
X162170341Y-123455026D01*
X162170347Y-123455024D01*
X162413824Y-123379921D01*
X162643381Y-123269373D01*
X162804185Y-123159737D01*
X162000220Y-122355772D01*
X162093588Y-122317099D01*
X162218925Y-122220925D01*
X162315099Y-122095589D01*
X162353772Y-122002220D01*
X163157545Y-122805993D01*
X163199545Y-122753327D01*
X163326941Y-122532671D01*
X163420026Y-122295494D01*
X163420031Y-122295477D01*
X163476726Y-122047079D01*
X163495767Y-121793004D01*
X163495767Y-121792995D01*
X163476726Y-121538920D01*
X163420031Y-121290522D01*
X163420026Y-121290505D01*
X163326941Y-121053328D01*
X163326942Y-121053328D01*
X163199544Y-120832671D01*
X163157546Y-120780006D01*
X162353772Y-121583779D01*
X162315099Y-121490412D01*
X162218925Y-121365075D01*
X162093588Y-121268901D01*
X162000220Y-121230227D01*
X162804185Y-120426261D01*
X162643377Y-120316624D01*
X162643376Y-120316623D01*
X162413823Y-120206078D01*
X162413825Y-120206078D01*
X162170347Y-120130975D01*
X162170341Y-120130973D01*
X161918404Y-120093000D01*
X161663595Y-120093000D01*
X161411658Y-120130973D01*
X161411652Y-120130975D01*
X161168175Y-120206078D01*
X160938624Y-120316623D01*
X160938616Y-120316628D01*
X160777813Y-120426261D01*
X161581779Y-121230227D01*
X161488412Y-121268901D01*
X161363075Y-121365075D01*
X161266901Y-121490411D01*
X161228226Y-121583779D01*
X160424453Y-120780006D01*
X160382455Y-120832670D01*
X160255058Y-121053328D01*
X160161973Y-121290505D01*
X160161968Y-121290522D01*
X160105273Y-121538920D01*
X160086233Y-121792995D01*
X160086233Y-121793004D01*
X141666803Y-121793004D01*
X141785331Y-121748796D01*
X141900546Y-121662546D01*
X141986796Y-121547331D01*
X142037091Y-121412483D01*
X142043500Y-121352873D01*
X142043499Y-119857128D01*
X142037091Y-119797517D01*
X142006540Y-119715606D01*
X141986797Y-119662671D01*
X141986793Y-119662664D01*
X141900547Y-119547455D01*
X141900544Y-119547452D01*
X141785335Y-119461206D01*
X141785328Y-119461202D01*
X141650482Y-119410908D01*
X141650483Y-119410908D01*
X141590883Y-119404501D01*
X141590881Y-119404500D01*
X141590873Y-119404500D01*
X141590864Y-119404500D01*
X140095129Y-119404500D01*
X140095123Y-119404501D01*
X140035516Y-119410908D01*
X139900671Y-119461202D01*
X139900664Y-119461206D01*
X139785455Y-119547452D01*
X139785452Y-119547455D01*
X139699206Y-119662664D01*
X139699202Y-119662671D01*
X139648908Y-119797517D01*
X139642501Y-119857116D01*
X139642501Y-119857123D01*
X139642500Y-119857135D01*
X139642500Y-121352870D01*
X137427317Y-121352870D01*
X137033001Y-120958553D01*
X137033000Y-120958553D01*
X136379672Y-121611879D01*
X136379672Y-121611880D01*
X127508500Y-121611880D01*
X127508500Y-120605000D01*
X135827859Y-120605000D01*
X135848378Y-120826439D01*
X135909240Y-121040350D01*
X136008369Y-121239428D01*
X136024137Y-121260308D01*
X136024138Y-121260308D01*
X136650145Y-120634302D01*
X136679372Y-120634302D01*
X136708047Y-120747538D01*
X136771936Y-120845327D01*
X136864115Y-120917072D01*
X136974595Y-120955000D01*
X137062005Y-120955000D01*
X137148216Y-120940614D01*
X137250947Y-120885019D01*
X137330060Y-120799079D01*
X137376982Y-120692108D01*
X137384200Y-120604999D01*
X137386553Y-120604999D01*
X138041861Y-121260308D01*
X138057631Y-121239425D01*
X138057633Y-121239422D01*
X138156759Y-121040350D01*
X138217621Y-120826439D01*
X138238141Y-120605000D01*
X138238141Y-120604999D01*
X138217621Y-120383560D01*
X138156759Y-120169649D01*
X138057635Y-119970580D01*
X138057630Y-119970572D01*
X138041860Y-119949690D01*
X137386553Y-120604999D01*
X137384200Y-120604999D01*
X137386628Y-120575698D01*
X137357953Y-120462462D01*
X137294064Y-120364673D01*
X137201885Y-120292928D01*
X137091405Y-120255000D01*
X137003995Y-120255000D01*
X136917784Y-120269386D01*
X136815053Y-120324981D01*
X136735940Y-120410921D01*
X136689018Y-120517892D01*
X136679372Y-120634302D01*
X136650145Y-120634302D01*
X136679447Y-120605000D01*
X136024138Y-119949691D01*
X136024137Y-119949691D01*
X136008368Y-119970574D01*
X135909240Y-120169649D01*
X135848378Y-120383560D01*
X135827859Y-120604999D01*
X135827859Y-120605000D01*
X127508500Y-120605000D01*
X127508500Y-119598119D01*
X136379671Y-119598119D01*
X137032998Y-120251447D01*
X137032999Y-120251447D01*
X137686327Y-119598119D01*
X137570178Y-119526202D01*
X137570177Y-119526201D01*
X137362804Y-119445865D01*
X137144193Y-119405000D01*
X136921807Y-119405000D01*
X136703195Y-119445865D01*
X136495824Y-119526200D01*
X136495823Y-119526201D01*
X136379671Y-119598119D01*
X127508500Y-119598119D01*
X127508500Y-118999005D01*
X148354357Y-118999005D01*
X148374890Y-119246812D01*
X148374892Y-119246824D01*
X148435936Y-119487881D01*
X148535826Y-119715606D01*
X148671833Y-119923782D01*
X148671836Y-119923785D01*
X148840256Y-120106738D01*
X149036491Y-120259474D01*
X149255190Y-120377828D01*
X149490386Y-120458571D01*
X149735665Y-120499500D01*
X149984335Y-120499500D01*
X150229614Y-120458571D01*
X150464810Y-120377828D01*
X150683509Y-120259474D01*
X150879744Y-120106738D01*
X150934856Y-120046870D01*
X153359500Y-120046870D01*
X153359501Y-120046876D01*
X153365908Y-120106483D01*
X153416202Y-120241328D01*
X153416206Y-120241335D01*
X153502452Y-120356544D01*
X153502455Y-120356547D01*
X153617664Y-120442793D01*
X153617671Y-120442797D01*
X153752517Y-120493091D01*
X153752516Y-120493091D01*
X153759444Y-120493835D01*
X153812127Y-120499500D01*
X155907872Y-120499499D01*
X155967483Y-120493091D01*
X156102331Y-120442796D01*
X156217546Y-120356546D01*
X156303796Y-120241331D01*
X156354091Y-120106483D01*
X156360500Y-120046873D01*
X156360499Y-117951128D01*
X156354091Y-117891517D01*
X156338475Y-117849649D01*
X156303797Y-117756671D01*
X156303793Y-117756664D01*
X156217547Y-117641455D01*
X156217544Y-117641452D01*
X156102335Y-117555206D01*
X156102328Y-117555202D01*
X155967482Y-117504908D01*
X155967483Y-117504908D01*
X155907883Y-117498501D01*
X155907881Y-117498500D01*
X155907873Y-117498500D01*
X155907864Y-117498500D01*
X153812129Y-117498500D01*
X153812123Y-117498501D01*
X153752516Y-117504908D01*
X153617671Y-117555202D01*
X153617664Y-117555206D01*
X153502455Y-117641452D01*
X153502452Y-117641455D01*
X153416206Y-117756664D01*
X153416202Y-117756671D01*
X153365908Y-117891517D01*
X153361955Y-117928293D01*
X153359501Y-117951123D01*
X153359500Y-117951135D01*
X153359500Y-120046870D01*
X150934856Y-120046870D01*
X151048164Y-119923785D01*
X151184173Y-119715607D01*
X151284063Y-119487881D01*
X151345108Y-119246821D01*
X151365643Y-118999000D01*
X151345108Y-118751179D01*
X151284063Y-118510119D01*
X151184173Y-118282393D01*
X151048166Y-118074217D01*
X150987195Y-118007985D01*
X150879744Y-117891262D01*
X150683509Y-117738526D01*
X150683507Y-117738525D01*
X150683506Y-117738524D01*
X150464811Y-117620172D01*
X150464802Y-117620169D01*
X150229616Y-117539429D01*
X149984335Y-117498500D01*
X149735665Y-117498500D01*
X149490383Y-117539429D01*
X149255197Y-117620169D01*
X149255188Y-117620172D01*
X149036493Y-117738524D01*
X148840257Y-117891261D01*
X148671833Y-118074217D01*
X148535826Y-118282393D01*
X148435936Y-118510118D01*
X148374892Y-118751175D01*
X148374890Y-118751187D01*
X148354357Y-118998994D01*
X148354357Y-118999005D01*
X127508500Y-118999005D01*
X127508500Y-105606135D01*
X133704216Y-105606135D01*
X133714030Y-105837172D01*
X133714030Y-105837178D01*
X133762751Y-106063240D01*
X133848972Y-106277809D01*
X133848974Y-106277813D01*
X133970221Y-106474730D01*
X134123002Y-106648324D01*
X134123005Y-106648327D01*
X134302917Y-106793595D01*
X134302923Y-106793600D01*
X134411542Y-106854278D01*
X134504809Y-106906380D01*
X134722850Y-106983419D01*
X134722856Y-106983420D01*
X134950765Y-107022499D01*
X134950773Y-107022499D01*
X134950775Y-107022500D01*
X134950776Y-107022500D01*
X135124119Y-107022500D01*
X135296813Y-107007802D01*
X135296816Y-107007801D01*
X135296818Y-107007801D01*
X135520607Y-106949530D01*
X135520608Y-106949529D01*
X135520610Y-106949529D01*
X135731319Y-106854283D01*
X135731322Y-106854280D01*
X135731329Y-106854278D01*
X135922923Y-106724783D01*
X136089876Y-106564772D01*
X136227385Y-106378847D01*
X136331495Y-106172357D01*
X136399211Y-105951243D01*
X136428584Y-105721865D01*
X136423668Y-105606135D01*
X140704216Y-105606135D01*
X140714030Y-105837172D01*
X140714030Y-105837178D01*
X140762751Y-106063240D01*
X140848972Y-106277809D01*
X140848974Y-106277813D01*
X140970221Y-106474730D01*
X141123002Y-106648324D01*
X141123005Y-106648327D01*
X141302917Y-106793595D01*
X141302923Y-106793600D01*
X141411542Y-106854278D01*
X141504809Y-106906380D01*
X141722850Y-106983419D01*
X141722856Y-106983420D01*
X141950765Y-107022499D01*
X141950773Y-107022499D01*
X141950775Y-107022500D01*
X141950776Y-107022500D01*
X142124119Y-107022500D01*
X142296813Y-107007802D01*
X142296816Y-107007801D01*
X142296818Y-107007801D01*
X142520607Y-106949530D01*
X142520608Y-106949529D01*
X142520610Y-106949529D01*
X142731319Y-106854283D01*
X142731322Y-106854280D01*
X142731329Y-106854278D01*
X142922923Y-106724783D01*
X143089876Y-106564772D01*
X143227385Y-106378847D01*
X143331495Y-106172357D01*
X143399211Y-105951243D01*
X143428584Y-105721865D01*
X143418769Y-105490822D01*
X143416078Y-105478338D01*
X143370048Y-105264759D01*
X143283827Y-105050190D01*
X143283826Y-105050187D01*
X143162579Y-104853270D01*
X143009798Y-104679676D01*
X143009796Y-104679674D01*
X143009794Y-104679672D01*
X142829882Y-104534404D01*
X142829876Y-104534399D01*
X142627994Y-104421621D01*
X142409953Y-104344582D01*
X142409943Y-104344579D01*
X142182034Y-104305500D01*
X142182025Y-104305500D01*
X142008687Y-104305500D01*
X142008681Y-104305500D01*
X141835986Y-104320197D01*
X141612193Y-104378469D01*
X141612189Y-104378470D01*
X141401480Y-104473716D01*
X141401468Y-104473723D01*
X141209886Y-104603209D01*
X141209877Y-104603217D01*
X141042928Y-104763223D01*
X140905413Y-104949155D01*
X140801305Y-105155641D01*
X140733588Y-105376759D01*
X140704216Y-105606135D01*
X136423668Y-105606135D01*
X136418769Y-105490822D01*
X136416078Y-105478338D01*
X136370048Y-105264759D01*
X136283827Y-105050190D01*
X136283826Y-105050187D01*
X136162579Y-104853270D01*
X136009798Y-104679676D01*
X136009796Y-104679674D01*
X136009794Y-104679672D01*
X135829882Y-104534404D01*
X135829876Y-104534399D01*
X135627994Y-104421621D01*
X135409953Y-104344582D01*
X135409943Y-104344579D01*
X135182034Y-104305500D01*
X135182025Y-104305500D01*
X135008687Y-104305500D01*
X135008681Y-104305500D01*
X134835986Y-104320197D01*
X134612193Y-104378469D01*
X134612189Y-104378470D01*
X134401480Y-104473716D01*
X134401468Y-104473723D01*
X134209886Y-104603209D01*
X134209877Y-104603217D01*
X134042928Y-104763223D01*
X133905413Y-104949155D01*
X133801305Y-105155641D01*
X133733588Y-105376759D01*
X133704216Y-105606135D01*
X127508500Y-105606135D01*
X127508500Y-103102401D01*
X151035532Y-103102401D01*
X151055364Y-103329086D01*
X151055366Y-103329097D01*
X151114258Y-103548888D01*
X151114261Y-103548897D01*
X151210431Y-103755132D01*
X151210432Y-103755134D01*
X151340954Y-103941541D01*
X151501858Y-104102445D01*
X151501861Y-104102447D01*
X151688266Y-104232968D01*
X151894504Y-104329139D01*
X152114308Y-104388035D01*
X152276230Y-104402201D01*
X152340998Y-104407868D01*
X152341000Y-104407868D01*
X152341002Y-104407868D01*
X152397673Y-104402909D01*
X152567692Y-104388035D01*
X152787496Y-104329139D01*
X152993734Y-104232968D01*
X153180139Y-104102447D01*
X153341047Y-103941539D01*
X153471568Y-103755134D01*
X153567739Y-103548896D01*
X153626635Y-103329092D01*
X153646468Y-103102401D01*
X158655532Y-103102401D01*
X158675364Y-103329086D01*
X158675366Y-103329097D01*
X158734258Y-103548888D01*
X158734261Y-103548897D01*
X158830431Y-103755132D01*
X158830432Y-103755134D01*
X158960951Y-103941537D01*
X158960952Y-103941538D01*
X158960953Y-103941539D01*
X159043182Y-104023768D01*
X159076666Y-104085089D01*
X159079500Y-104111448D01*
X159079500Y-110987646D01*
X159079295Y-110992681D01*
X159074626Y-111050008D01*
X159074627Y-111050016D01*
X159085959Y-111133197D01*
X159095033Y-111216613D01*
X159095033Y-111216616D01*
X159095120Y-111216872D01*
X159100471Y-111239705D01*
X159100509Y-111239987D01*
X159100510Y-111239991D01*
X159129463Y-111318799D01*
X159156255Y-111398316D01*
X159156401Y-111398559D01*
X159166532Y-111419700D01*
X159166627Y-111419960D01*
X159166634Y-111419973D01*
X159211829Y-111490682D01*
X159255104Y-111562605D01*
X159255108Y-111562610D01*
X159255294Y-111562806D01*
X159269748Y-111581294D01*
X159269893Y-111581521D01*
X159269900Y-111581530D01*
X159329232Y-111640861D01*
X159386960Y-111701805D01*
X159386963Y-111701807D01*
X159387187Y-111701959D01*
X159405286Y-111716915D01*
X163544379Y-115856008D01*
X163577864Y-115917331D01*
X163579660Y-115945587D01*
X163580532Y-115945587D01*
X163580532Y-115951001D01*
X163600364Y-116177686D01*
X163600366Y-116177697D01*
X163659258Y-116397488D01*
X163659261Y-116397497D01*
X163755431Y-116603732D01*
X163755432Y-116603734D01*
X163885954Y-116790141D01*
X164046858Y-116951045D01*
X164046861Y-116951047D01*
X164233266Y-117081568D01*
X164439504Y-117177739D01*
X164659308Y-117236635D01*
X164821230Y-117250801D01*
X164885998Y-117256468D01*
X164886000Y-117256468D01*
X164886002Y-117256468D01*
X164942673Y-117251509D01*
X165112692Y-117236635D01*
X165332496Y-117177739D01*
X165538734Y-117081568D01*
X165725139Y-116951047D01*
X165886047Y-116790139D01*
X166016568Y-116603734D01*
X166112739Y-116397496D01*
X166171635Y-116177692D01*
X166191468Y-115951002D01*
X168581034Y-115951002D01*
X168600858Y-116177599D01*
X168600860Y-116177610D01*
X168659730Y-116397317D01*
X168659734Y-116397326D01*
X168755865Y-116603481D01*
X168755866Y-116603483D01*
X168806973Y-116676471D01*
X168806974Y-116676472D01*
X169488046Y-115995399D01*
X169500835Y-116076148D01*
X169558359Y-116189045D01*
X169647955Y-116278641D01*
X169760852Y-116336165D01*
X169841599Y-116348953D01*
X169160526Y-117030025D01*
X169160526Y-117030026D01*
X169233512Y-117081131D01*
X169233516Y-117081133D01*
X169439673Y-117177265D01*
X169439682Y-117177269D01*
X169659389Y-117236139D01*
X169659400Y-117236141D01*
X169885998Y-117255966D01*
X169886002Y-117255966D01*
X170112599Y-117236141D01*
X170112610Y-117236139D01*
X170332317Y-117177269D01*
X170332331Y-117177264D01*
X170538478Y-117081136D01*
X170611472Y-117030025D01*
X169930401Y-116348953D01*
X170011148Y-116336165D01*
X170124045Y-116278641D01*
X170213641Y-116189045D01*
X170271165Y-116076148D01*
X170283953Y-115995400D01*
X170965025Y-116676472D01*
X171016136Y-116603478D01*
X171112264Y-116397331D01*
X171112269Y-116397317D01*
X171171139Y-116177610D01*
X171171141Y-116177599D01*
X171190966Y-115951002D01*
X171190966Y-115950997D01*
X171171141Y-115724400D01*
X171171139Y-115724389D01*
X171112269Y-115504682D01*
X171112265Y-115504673D01*
X171016133Y-115298516D01*
X171016131Y-115298512D01*
X170965026Y-115225526D01*
X170965025Y-115225526D01*
X170283953Y-115906598D01*
X170271165Y-115825852D01*
X170213641Y-115712955D01*
X170124045Y-115623359D01*
X170011148Y-115565835D01*
X169930400Y-115553046D01*
X170611472Y-114871974D01*
X170611471Y-114871973D01*
X170538483Y-114820866D01*
X170538481Y-114820865D01*
X170332326Y-114724734D01*
X170332317Y-114724730D01*
X170112610Y-114665860D01*
X170112599Y-114665858D01*
X169886002Y-114646034D01*
X169885998Y-114646034D01*
X169659400Y-114665858D01*
X169659389Y-114665860D01*
X169439682Y-114724730D01*
X169439673Y-114724734D01*
X169233513Y-114820868D01*
X169160527Y-114871972D01*
X169160526Y-114871973D01*
X169841600Y-115553046D01*
X169760852Y-115565835D01*
X169647955Y-115623359D01*
X169558359Y-115712955D01*
X169500835Y-115825852D01*
X169488046Y-115906599D01*
X168806973Y-115225526D01*
X168806972Y-115225527D01*
X168755868Y-115298513D01*
X168659734Y-115504673D01*
X168659730Y-115504682D01*
X168600860Y-115724389D01*
X168600858Y-115724400D01*
X168581034Y-115950997D01*
X168581034Y-115951002D01*
X166191468Y-115951002D01*
X166191468Y-115951000D01*
X166190994Y-115945587D01*
X166171635Y-115724313D01*
X166171635Y-115724308D01*
X166112739Y-115504504D01*
X166016568Y-115298266D01*
X165886047Y-115111861D01*
X165886045Y-115111858D01*
X165725141Y-114950954D01*
X165538734Y-114820432D01*
X165538732Y-114820431D01*
X165332497Y-114724261D01*
X165332488Y-114724258D01*
X165112697Y-114665366D01*
X165112693Y-114665365D01*
X165112692Y-114665365D01*
X165112691Y-114665364D01*
X165112686Y-114665364D01*
X164886002Y-114645532D01*
X164880587Y-114645532D01*
X164880586Y-114643435D01*
X164820993Y-114631458D01*
X164791008Y-114609379D01*
X160878819Y-110697189D01*
X160845334Y-110635866D01*
X160842500Y-110609508D01*
X160842500Y-110109002D01*
X163454034Y-110109002D01*
X163473858Y-110335599D01*
X163473860Y-110335610D01*
X163532730Y-110555317D01*
X163532734Y-110555326D01*
X163628865Y-110761481D01*
X163628866Y-110761483D01*
X163679973Y-110834471D01*
X163679974Y-110834472D01*
X164361046Y-110153399D01*
X164373835Y-110234148D01*
X164431359Y-110347045D01*
X164520955Y-110436641D01*
X164633852Y-110494165D01*
X164714599Y-110506953D01*
X164033526Y-111188025D01*
X164033526Y-111188026D01*
X164106512Y-111239131D01*
X164106516Y-111239133D01*
X164312673Y-111335265D01*
X164312682Y-111335269D01*
X164532389Y-111394139D01*
X164532400Y-111394141D01*
X164758998Y-111413966D01*
X164759002Y-111413966D01*
X164985599Y-111394141D01*
X164985610Y-111394139D01*
X165205317Y-111335269D01*
X165205331Y-111335264D01*
X165411478Y-111239136D01*
X165484472Y-111188025D01*
X164803401Y-110506953D01*
X164884148Y-110494165D01*
X164997045Y-110436641D01*
X165086641Y-110347045D01*
X165144165Y-110234148D01*
X165156953Y-110153400D01*
X165838025Y-110834472D01*
X165889136Y-110761478D01*
X165985264Y-110555331D01*
X165985269Y-110555317D01*
X166044139Y-110335610D01*
X166044141Y-110335599D01*
X166063966Y-110109002D01*
X166063966Y-110108997D01*
X166044141Y-109882400D01*
X166044139Y-109882389D01*
X165985269Y-109662682D01*
X165985265Y-109662673D01*
X165889133Y-109456516D01*
X165889131Y-109456512D01*
X165838026Y-109383526D01*
X165838025Y-109383526D01*
X165156953Y-110064598D01*
X165144165Y-109983852D01*
X165086641Y-109870955D01*
X164997045Y-109781359D01*
X164884148Y-109723835D01*
X164803400Y-109711046D01*
X165484472Y-109029974D01*
X165484471Y-109029973D01*
X165411483Y-108978866D01*
X165411481Y-108978865D01*
X165205326Y-108882734D01*
X165205317Y-108882730D01*
X164985610Y-108823860D01*
X164985599Y-108823858D01*
X164759002Y-108804034D01*
X164758998Y-108804034D01*
X164532400Y-108823858D01*
X164532389Y-108823860D01*
X164312682Y-108882730D01*
X164312673Y-108882734D01*
X164106513Y-108978868D01*
X164033527Y-109029972D01*
X164033526Y-109029973D01*
X164714600Y-109711046D01*
X164633852Y-109723835D01*
X164520955Y-109781359D01*
X164431359Y-109870955D01*
X164373835Y-109983852D01*
X164361046Y-110064599D01*
X163679973Y-109383526D01*
X163679972Y-109383527D01*
X163628868Y-109456513D01*
X163532734Y-109662673D01*
X163532730Y-109662682D01*
X163473860Y-109882389D01*
X163473858Y-109882400D01*
X163454034Y-110108997D01*
X163454034Y-110109002D01*
X160842500Y-110109002D01*
X160842500Y-104111448D01*
X160862185Y-104044409D01*
X160878814Y-104023771D01*
X160961047Y-103941539D01*
X161091568Y-103755134D01*
X161187739Y-103548896D01*
X161246635Y-103329092D01*
X161266468Y-103102400D01*
X161246635Y-102875708D01*
X161187739Y-102655904D01*
X161091568Y-102449666D01*
X160961047Y-102263261D01*
X160961045Y-102263258D01*
X160800141Y-102102354D01*
X160613734Y-101971832D01*
X160613732Y-101971831D01*
X160407497Y-101875661D01*
X160407488Y-101875658D01*
X160187697Y-101816766D01*
X160187693Y-101816765D01*
X160187692Y-101816765D01*
X160187691Y-101816764D01*
X160187686Y-101816764D01*
X159961002Y-101796932D01*
X159960998Y-101796932D01*
X159734313Y-101816764D01*
X159734302Y-101816766D01*
X159514511Y-101875658D01*
X159514502Y-101875661D01*
X159308267Y-101971831D01*
X159308265Y-101971832D01*
X159121858Y-102102354D01*
X158960954Y-102263258D01*
X158830432Y-102449665D01*
X158830431Y-102449667D01*
X158734261Y-102655902D01*
X158734258Y-102655911D01*
X158675366Y-102875702D01*
X158675364Y-102875713D01*
X158655532Y-103102398D01*
X158655532Y-103102401D01*
X153646468Y-103102401D01*
X153646468Y-103102400D01*
X153626635Y-102875708D01*
X153567739Y-102655904D01*
X153471568Y-102449666D01*
X153341047Y-102263261D01*
X153341045Y-102263258D01*
X153180141Y-102102354D01*
X152993734Y-101971832D01*
X152993732Y-101971831D01*
X152787497Y-101875661D01*
X152787488Y-101875658D01*
X152567697Y-101816766D01*
X152567693Y-101816765D01*
X152567692Y-101816765D01*
X152567691Y-101816764D01*
X152567686Y-101816764D01*
X152341002Y-101796932D01*
X152340998Y-101796932D01*
X152114313Y-101816764D01*
X152114302Y-101816766D01*
X151894511Y-101875658D01*
X151894502Y-101875661D01*
X151688267Y-101971831D01*
X151688265Y-101971832D01*
X151501858Y-102102354D01*
X151340954Y-102263258D01*
X151210432Y-102449665D01*
X151210431Y-102449667D01*
X151114261Y-102655902D01*
X151114258Y-102655911D01*
X151055366Y-102875702D01*
X151055364Y-102875713D01*
X151035532Y-103102398D01*
X151035532Y-103102401D01*
X127508500Y-103102401D01*
X127508500Y-98704401D01*
X151094532Y-98704401D01*
X151114364Y-98931086D01*
X151114366Y-98931097D01*
X151173258Y-99150888D01*
X151173261Y-99150897D01*
X151269431Y-99357132D01*
X151269432Y-99357134D01*
X151399954Y-99543541D01*
X151560858Y-99704445D01*
X151560861Y-99704447D01*
X151747266Y-99834968D01*
X151953504Y-99931139D01*
X152173308Y-99990035D01*
X152335230Y-100004201D01*
X152399998Y-100009868D01*
X152400000Y-100009868D01*
X152400002Y-100009868D01*
X152456673Y-100004909D01*
X152626692Y-99990035D01*
X152846496Y-99931139D01*
X153052734Y-99834968D01*
X153239139Y-99704447D01*
X153400047Y-99543539D01*
X153530568Y-99357134D01*
X153626739Y-99150896D01*
X153685635Y-98931092D01*
X153705468Y-98704401D01*
X158714532Y-98704401D01*
X158734364Y-98931086D01*
X158734366Y-98931097D01*
X158793258Y-99150888D01*
X158793261Y-99150897D01*
X158889431Y-99357132D01*
X158889432Y-99357134D01*
X159019954Y-99543541D01*
X159180858Y-99704445D01*
X159180861Y-99704447D01*
X159367266Y-99834968D01*
X159573504Y-99931139D01*
X159793308Y-99990035D01*
X159955230Y-100004201D01*
X160019998Y-100009868D01*
X160020000Y-100009868D01*
X160020002Y-100009868D01*
X160076673Y-100004909D01*
X160246692Y-99990035D01*
X160466496Y-99931139D01*
X160672734Y-99834968D01*
X160859139Y-99704447D01*
X161020047Y-99543539D01*
X161150568Y-99357134D01*
X161246739Y-99150896D01*
X161305635Y-98931092D01*
X161325468Y-98704400D01*
X161305635Y-98477708D01*
X161246739Y-98257904D01*
X161150568Y-98051666D01*
X161027144Y-97875396D01*
X161020045Y-97865258D01*
X160859141Y-97704354D01*
X160672734Y-97573832D01*
X160672732Y-97573831D01*
X160466497Y-97477661D01*
X160466488Y-97477658D01*
X160246697Y-97418766D01*
X160246693Y-97418765D01*
X160246692Y-97418765D01*
X160246691Y-97418764D01*
X160246686Y-97418764D01*
X160020002Y-97398932D01*
X160019998Y-97398932D01*
X159793313Y-97418764D01*
X159793302Y-97418766D01*
X159573511Y-97477658D01*
X159573502Y-97477661D01*
X159367267Y-97573831D01*
X159367265Y-97573832D01*
X159180858Y-97704354D01*
X159019954Y-97865258D01*
X158889432Y-98051665D01*
X158889431Y-98051667D01*
X158793261Y-98257902D01*
X158793258Y-98257911D01*
X158734366Y-98477702D01*
X158734364Y-98477713D01*
X158714532Y-98704398D01*
X158714532Y-98704401D01*
X153705468Y-98704401D01*
X153705468Y-98704400D01*
X153685635Y-98477708D01*
X153626739Y-98257904D01*
X153530568Y-98051666D01*
X153407144Y-97875396D01*
X153400045Y-97865258D01*
X153239141Y-97704354D01*
X153052734Y-97573832D01*
X153052732Y-97573831D01*
X152846497Y-97477661D01*
X152846488Y-97477658D01*
X152626697Y-97418766D01*
X152626693Y-97418765D01*
X152626692Y-97418765D01*
X152626691Y-97418764D01*
X152626686Y-97418764D01*
X152400002Y-97398932D01*
X152399998Y-97398932D01*
X152173313Y-97418764D01*
X152173302Y-97418766D01*
X151953511Y-97477658D01*
X151953502Y-97477661D01*
X151747267Y-97573831D01*
X151747265Y-97573832D01*
X151560858Y-97704354D01*
X151399954Y-97865258D01*
X151269432Y-98051665D01*
X151269431Y-98051667D01*
X151173261Y-98257902D01*
X151173258Y-98257911D01*
X151114366Y-98477702D01*
X151114364Y-98477713D01*
X151094532Y-98704398D01*
X151094532Y-98704401D01*
X127508500Y-98704401D01*
X127508500Y-94654401D01*
X151094532Y-94654401D01*
X151114364Y-94881086D01*
X151114366Y-94881097D01*
X151173258Y-95100888D01*
X151173261Y-95100897D01*
X151269431Y-95307132D01*
X151269432Y-95307134D01*
X151399954Y-95493541D01*
X151560858Y-95654445D01*
X151560861Y-95654447D01*
X151747266Y-95784968D01*
X151953504Y-95881139D01*
X152173308Y-95940035D01*
X152335230Y-95954201D01*
X152399998Y-95959868D01*
X152400000Y-95959868D01*
X152400002Y-95959868D01*
X152456672Y-95954909D01*
X152626692Y-95940035D01*
X152846496Y-95881139D01*
X153052734Y-95784968D01*
X153239139Y-95654447D01*
X153400047Y-95493539D01*
X153530568Y-95307134D01*
X153626739Y-95100896D01*
X153685635Y-94881092D01*
X153705468Y-94654401D01*
X158714532Y-94654401D01*
X158734364Y-94881086D01*
X158734366Y-94881097D01*
X158793258Y-95100888D01*
X158793261Y-95100897D01*
X158889431Y-95307132D01*
X158889432Y-95307134D01*
X159019954Y-95493541D01*
X159180858Y-95654445D01*
X159180861Y-95654447D01*
X159367266Y-95784968D01*
X159573504Y-95881139D01*
X159793308Y-95940035D01*
X159955230Y-95954201D01*
X160019998Y-95959868D01*
X160020000Y-95959868D01*
X160020002Y-95959868D01*
X160076673Y-95954909D01*
X160246692Y-95940035D01*
X160466496Y-95881139D01*
X160672734Y-95784968D01*
X160859139Y-95654447D01*
X161020047Y-95493539D01*
X161150568Y-95307134D01*
X161246739Y-95100896D01*
X161305635Y-94881092D01*
X161325468Y-94654400D01*
X161305635Y-94427708D01*
X161246739Y-94207904D01*
X161150568Y-94001666D01*
X161020047Y-93815261D01*
X161020045Y-93815258D01*
X160859141Y-93654354D01*
X160672734Y-93523832D01*
X160672732Y-93523831D01*
X160466497Y-93427661D01*
X160466488Y-93427658D01*
X160246697Y-93368766D01*
X160246693Y-93368765D01*
X160246692Y-93368765D01*
X160246691Y-93368764D01*
X160246686Y-93368764D01*
X160020002Y-93348932D01*
X160019998Y-93348932D01*
X159793313Y-93368764D01*
X159793302Y-93368766D01*
X159573511Y-93427658D01*
X159573502Y-93427661D01*
X159367267Y-93523831D01*
X159367265Y-93523832D01*
X159180858Y-93654354D01*
X159019954Y-93815258D01*
X158889432Y-94001665D01*
X158889431Y-94001667D01*
X158793261Y-94207902D01*
X158793258Y-94207911D01*
X158734366Y-94427702D01*
X158734364Y-94427713D01*
X158714532Y-94654398D01*
X158714532Y-94654401D01*
X153705468Y-94654401D01*
X153705468Y-94654400D01*
X153685635Y-94427708D01*
X153626739Y-94207904D01*
X153530568Y-94001666D01*
X153400047Y-93815261D01*
X153400045Y-93815258D01*
X153239141Y-93654354D01*
X153052734Y-93523832D01*
X153052732Y-93523831D01*
X152846497Y-93427661D01*
X152846488Y-93427658D01*
X152626697Y-93368766D01*
X152626693Y-93368765D01*
X152626692Y-93368765D01*
X152626691Y-93368764D01*
X152626686Y-93368764D01*
X152400002Y-93348932D01*
X152399998Y-93348932D01*
X152173313Y-93368764D01*
X152173302Y-93368766D01*
X151953511Y-93427658D01*
X151953502Y-93427661D01*
X151747267Y-93523831D01*
X151747265Y-93523832D01*
X151560858Y-93654354D01*
X151399954Y-93815258D01*
X151269432Y-94001665D01*
X151269431Y-94001667D01*
X151173261Y-94207902D01*
X151173258Y-94207911D01*
X151114366Y-94427702D01*
X151114364Y-94427713D01*
X151094532Y-94654398D01*
X151094532Y-94654401D01*
X127508500Y-94654401D01*
X127508500Y-90200870D01*
X135680100Y-90200870D01*
X135680101Y-90200876D01*
X135686508Y-90260483D01*
X135736802Y-90395328D01*
X135736806Y-90395335D01*
X135823052Y-90510544D01*
X135823055Y-90510547D01*
X135938264Y-90596793D01*
X135938271Y-90596797D01*
X136073117Y-90647091D01*
X136073116Y-90647091D01*
X136080044Y-90647835D01*
X136132727Y-90653500D01*
X137628472Y-90653499D01*
X137688083Y-90647091D01*
X137822931Y-90596796D01*
X137938146Y-90510546D01*
X137976075Y-90459880D01*
X140037272Y-90459880D01*
X140153421Y-90531797D01*
X140153422Y-90531798D01*
X140360795Y-90612134D01*
X140579407Y-90653000D01*
X140801793Y-90653000D01*
X141020409Y-90612133D01*
X141227768Y-90531801D01*
X141227781Y-90531795D01*
X141343926Y-90459879D01*
X140690601Y-89806553D01*
X140690600Y-89806553D01*
X140037272Y-90459879D01*
X140037272Y-90459880D01*
X137976075Y-90459880D01*
X138024396Y-90395331D01*
X138074691Y-90260483D01*
X138081100Y-90200873D01*
X138081099Y-89453000D01*
X139485459Y-89453000D01*
X139505978Y-89674439D01*
X139566840Y-89888350D01*
X139665969Y-90087428D01*
X139681737Y-90108308D01*
X139681738Y-90108308D01*
X140307745Y-89482302D01*
X140336972Y-89482302D01*
X140365647Y-89595538D01*
X140429536Y-89693327D01*
X140521715Y-89765072D01*
X140632195Y-89803000D01*
X140719605Y-89803000D01*
X140805816Y-89788614D01*
X140908547Y-89733019D01*
X140987660Y-89647079D01*
X141034582Y-89540108D01*
X141041800Y-89453000D01*
X141044153Y-89453000D01*
X141699461Y-90108308D01*
X141715231Y-90087425D01*
X141715233Y-90087422D01*
X141814359Y-89888350D01*
X141875221Y-89674439D01*
X141895741Y-89453000D01*
X141895741Y-89452999D01*
X141875221Y-89231560D01*
X141814359Y-89017649D01*
X141715235Y-88818580D01*
X141715230Y-88818572D01*
X141699460Y-88797690D01*
X141044153Y-89452999D01*
X141044153Y-89453000D01*
X141041800Y-89453000D01*
X141044228Y-89423698D01*
X141015553Y-89310462D01*
X140951664Y-89212673D01*
X140859485Y-89140928D01*
X140749005Y-89103000D01*
X140661595Y-89103000D01*
X140575384Y-89117386D01*
X140472653Y-89172981D01*
X140393540Y-89258921D01*
X140346618Y-89365892D01*
X140336972Y-89482302D01*
X140307745Y-89482302D01*
X140337047Y-89453000D01*
X139681738Y-88797691D01*
X139681737Y-88797691D01*
X139665968Y-88818574D01*
X139566840Y-89017649D01*
X139505978Y-89231560D01*
X139485459Y-89452999D01*
X139485459Y-89453000D01*
X138081099Y-89453000D01*
X138081099Y-88705128D01*
X138074691Y-88645517D01*
X138037035Y-88544557D01*
X138024397Y-88510671D01*
X138024393Y-88510664D01*
X137976074Y-88446119D01*
X140037271Y-88446119D01*
X140690600Y-89099447D01*
X140690601Y-89099447D01*
X141296446Y-88493600D01*
X147187751Y-88493600D01*
X147207517Y-88744751D01*
X147266326Y-88989710D01*
X147362733Y-89222459D01*
X147494360Y-89437253D01*
X147494361Y-89437256D01*
X147505482Y-89450277D01*
X147657976Y-89628824D01*
X147742583Y-89701085D01*
X147849543Y-89792438D01*
X147849546Y-89792439D01*
X148064340Y-89924066D01*
X148225693Y-89990900D01*
X148297089Y-90020473D01*
X148542052Y-90079283D01*
X148793200Y-90099049D01*
X149044348Y-90079283D01*
X149289311Y-90020473D01*
X149522059Y-89924066D01*
X149736859Y-89792436D01*
X149913617Y-89641470D01*
X157352700Y-89641470D01*
X157352701Y-89641476D01*
X157359108Y-89701083D01*
X157409402Y-89835928D01*
X157409406Y-89835935D01*
X157495652Y-89951144D01*
X157495655Y-89951147D01*
X157610864Y-90037393D01*
X157610871Y-90037397D01*
X157745717Y-90087691D01*
X157745716Y-90087691D01*
X157752644Y-90088435D01*
X157805327Y-90094100D01*
X160101072Y-90094099D01*
X160160683Y-90087691D01*
X160295531Y-90037396D01*
X160410746Y-89951146D01*
X160496996Y-89835931D01*
X160547291Y-89701083D01*
X160548433Y-89690458D01*
X160575168Y-89625910D01*
X160632559Y-89586060D01*
X160702385Y-89583564D01*
X160759403Y-89616032D01*
X166849181Y-95705810D01*
X166882666Y-95767133D01*
X166885500Y-95793491D01*
X166885500Y-98335846D01*
X166885295Y-98340881D01*
X166880626Y-98398208D01*
X166880627Y-98398216D01*
X166891959Y-98481397D01*
X166901033Y-98564813D01*
X166901033Y-98564816D01*
X166901120Y-98565072D01*
X166906471Y-98587905D01*
X166906509Y-98588187D01*
X166906510Y-98588191D01*
X166935463Y-98666999D01*
X166962255Y-98746516D01*
X166962401Y-98746759D01*
X166972532Y-98767900D01*
X166972627Y-98768160D01*
X166972634Y-98768173D01*
X167017829Y-98838882D01*
X167061104Y-98910805D01*
X167061108Y-98910810D01*
X167061294Y-98911006D01*
X167075748Y-98929494D01*
X167075893Y-98929721D01*
X167075900Y-98929730D01*
X167135232Y-98989061D01*
X167192960Y-99050005D01*
X167192963Y-99050007D01*
X167193187Y-99050159D01*
X167211286Y-99065115D01*
X169762779Y-101616608D01*
X169796264Y-101677931D01*
X169798060Y-101706187D01*
X169798932Y-101706187D01*
X169798932Y-101711601D01*
X169818764Y-101938286D01*
X169818766Y-101938297D01*
X169877658Y-102158088D01*
X169877661Y-102158097D01*
X169973831Y-102364332D01*
X169973832Y-102364334D01*
X170104354Y-102550741D01*
X170265258Y-102711645D01*
X170265261Y-102711647D01*
X170451666Y-102842168D01*
X170509675Y-102869218D01*
X170562114Y-102915391D01*
X170581266Y-102982584D01*
X170561050Y-103049465D01*
X170509675Y-103093982D01*
X170451667Y-103121031D01*
X170451665Y-103121032D01*
X170265258Y-103251554D01*
X170104354Y-103412458D01*
X169973832Y-103598865D01*
X169973831Y-103598867D01*
X169877661Y-103805102D01*
X169877658Y-103805111D01*
X169818766Y-104024902D01*
X169818764Y-104024913D01*
X169798932Y-104251598D01*
X169798932Y-104251602D01*
X169802519Y-104292603D01*
X169788752Y-104361103D01*
X169740137Y-104411286D01*
X169672108Y-104427219D01*
X169606265Y-104403843D01*
X169591310Y-104391091D01*
X164784410Y-99584191D01*
X164750925Y-99522868D01*
X164752317Y-99464415D01*
X164770033Y-99398299D01*
X164770032Y-99398299D01*
X164770035Y-99398292D01*
X164789868Y-99171600D01*
X164770035Y-98944908D01*
X164711139Y-98725104D01*
X164614968Y-98518866D01*
X164484447Y-98332461D01*
X164484445Y-98332458D01*
X164323543Y-98171556D01*
X164298936Y-98154326D01*
X164255312Y-98099749D01*
X164248119Y-98030250D01*
X164279641Y-97967896D01*
X164339871Y-97932482D01*
X164356804Y-97929461D01*
X164391883Y-97925691D01*
X164526731Y-97875396D01*
X164641946Y-97789146D01*
X164728196Y-97673931D01*
X164778491Y-97539083D01*
X164784900Y-97479473D01*
X164784899Y-95783728D01*
X164778491Y-95724117D01*
X164768823Y-95698197D01*
X164728197Y-95589271D01*
X164728193Y-95589264D01*
X164641947Y-95474055D01*
X164641944Y-95474052D01*
X164526735Y-95387806D01*
X164526728Y-95387802D01*
X164391882Y-95337508D01*
X164391883Y-95337508D01*
X164332283Y-95331101D01*
X164332281Y-95331100D01*
X164332273Y-95331100D01*
X164332264Y-95331100D01*
X162636529Y-95331100D01*
X162636523Y-95331101D01*
X162576916Y-95337508D01*
X162442071Y-95387802D01*
X162442064Y-95387806D01*
X162326855Y-95474052D01*
X162326852Y-95474055D01*
X162240606Y-95589264D01*
X162240602Y-95589271D01*
X162190308Y-95724117D01*
X162186952Y-95755337D01*
X162183901Y-95783723D01*
X162183900Y-95783735D01*
X162183900Y-97479470D01*
X162183901Y-97479476D01*
X162190308Y-97539083D01*
X162240602Y-97673928D01*
X162240606Y-97673935D01*
X162326852Y-97789144D01*
X162326855Y-97789147D01*
X162442064Y-97875393D01*
X162442071Y-97875397D01*
X162487018Y-97892161D01*
X162576917Y-97925691D01*
X162611996Y-97929462D01*
X162676544Y-97956199D01*
X162716393Y-98013591D01*
X162718888Y-98083416D01*
X162683236Y-98143505D01*
X162669864Y-98154325D01*
X162645258Y-98171554D01*
X162484354Y-98332458D01*
X162353832Y-98518865D01*
X162353831Y-98518867D01*
X162257661Y-98725102D01*
X162257658Y-98725111D01*
X162198766Y-98944902D01*
X162198764Y-98944913D01*
X162178932Y-99171598D01*
X162178932Y-99171601D01*
X162198764Y-99398286D01*
X162198766Y-99398297D01*
X162257658Y-99618088D01*
X162257661Y-99618097D01*
X162353831Y-99824332D01*
X162353832Y-99824334D01*
X162484354Y-100010741D01*
X162645258Y-100171645D01*
X162645261Y-100171647D01*
X162831666Y-100302168D01*
X162889675Y-100329218D01*
X162942114Y-100375391D01*
X162961266Y-100442584D01*
X162941050Y-100509465D01*
X162889675Y-100553982D01*
X162831667Y-100581031D01*
X162831665Y-100581032D01*
X162645258Y-100711554D01*
X162484354Y-100872458D01*
X162353832Y-101058865D01*
X162353831Y-101058867D01*
X162257661Y-101265102D01*
X162257658Y-101265111D01*
X162198766Y-101484902D01*
X162198764Y-101484913D01*
X162178932Y-101711598D01*
X162178932Y-101711601D01*
X162198764Y-101938286D01*
X162198766Y-101938297D01*
X162257658Y-102158088D01*
X162257661Y-102158097D01*
X162353831Y-102364332D01*
X162353832Y-102364334D01*
X162484354Y-102550741D01*
X162645258Y-102711645D01*
X162645261Y-102711647D01*
X162831666Y-102842168D01*
X162890265Y-102869493D01*
X162942705Y-102915665D01*
X162961857Y-102982858D01*
X162941642Y-103049739D01*
X162890267Y-103094257D01*
X162831915Y-103121467D01*
X162645579Y-103251942D01*
X162484742Y-103412779D01*
X162354265Y-103599117D01*
X162258134Y-103805273D01*
X162258130Y-103805282D01*
X162205527Y-104001599D01*
X162205528Y-104001600D01*
X163168714Y-104001600D01*
X163156759Y-104013555D01*
X163099235Y-104126452D01*
X163079414Y-104251600D01*
X163099235Y-104376748D01*
X163156759Y-104489645D01*
X163168714Y-104501600D01*
X162205528Y-104501600D01*
X162258130Y-104697917D01*
X162258134Y-104697926D01*
X162354265Y-104904082D01*
X162484742Y-105090420D01*
X162645579Y-105251257D01*
X162831917Y-105381734D01*
X163038073Y-105477865D01*
X163038082Y-105477869D01*
X163234399Y-105530472D01*
X163234400Y-105530471D01*
X163234400Y-104567286D01*
X163246355Y-104579241D01*
X163359252Y-104636765D01*
X163452919Y-104651600D01*
X163515881Y-104651600D01*
X163609548Y-104636765D01*
X163722445Y-104579241D01*
X163734400Y-104567286D01*
X163734400Y-105530472D01*
X163930717Y-105477869D01*
X163930726Y-105477865D01*
X164136882Y-105381734D01*
X164323220Y-105251257D01*
X164484057Y-105090420D01*
X164614534Y-104904082D01*
X164710665Y-104697926D01*
X164710669Y-104697917D01*
X164763272Y-104501600D01*
X163800086Y-104501600D01*
X163812041Y-104489645D01*
X163869565Y-104376748D01*
X163889386Y-104251600D01*
X163869565Y-104126452D01*
X163812041Y-104013555D01*
X163800086Y-104001600D01*
X164803723Y-104001600D01*
X164857072Y-103998418D01*
X164916964Y-104031583D01*
X169095181Y-108209800D01*
X169128666Y-108271123D01*
X169131500Y-108297481D01*
X169131500Y-108896212D01*
X169111815Y-108963251D01*
X169078623Y-108997787D01*
X168919858Y-109108954D01*
X168758954Y-109269858D01*
X168628432Y-109456265D01*
X168628431Y-109456267D01*
X168532261Y-109662502D01*
X168532258Y-109662511D01*
X168473366Y-109882302D01*
X168473364Y-109882313D01*
X168453532Y-110108998D01*
X168453532Y-110109001D01*
X168473364Y-110335686D01*
X168473366Y-110335697D01*
X168532258Y-110555488D01*
X168532261Y-110555497D01*
X168628431Y-110761732D01*
X168628432Y-110761734D01*
X168758954Y-110948141D01*
X168919858Y-111109045D01*
X168966693Y-111141839D01*
X169106266Y-111239568D01*
X169312504Y-111335739D01*
X169532308Y-111394635D01*
X169692489Y-111408649D01*
X169758998Y-111414468D01*
X169759000Y-111414468D01*
X169759002Y-111414468D01*
X169825511Y-111408649D01*
X169985692Y-111394635D01*
X170205496Y-111335739D01*
X170411734Y-111239568D01*
X170598139Y-111109047D01*
X170759047Y-110948139D01*
X170889568Y-110761734D01*
X170985739Y-110555496D01*
X171044635Y-110335692D01*
X171064468Y-110109000D01*
X171044635Y-109882308D01*
X170985739Y-109662504D01*
X170889568Y-109456266D01*
X170759047Y-109269861D01*
X170759045Y-109269858D01*
X170598141Y-109108954D01*
X170439377Y-108997787D01*
X170395752Y-108943210D01*
X170386500Y-108896212D01*
X170386500Y-108069164D01*
X170388228Y-108053514D01*
X170387946Y-108053488D01*
X170388680Y-108045725D01*
X170386500Y-107976354D01*
X170386500Y-107946728D01*
X170386500Y-107946724D01*
X170385627Y-107939814D01*
X170385168Y-107933985D01*
X170383700Y-107887257D01*
X170378082Y-107867920D01*
X170374138Y-107848874D01*
X170371616Y-107828907D01*
X170354402Y-107785431D01*
X170352513Y-107779910D01*
X170339468Y-107735008D01*
X170329225Y-107717689D01*
X170320662Y-107700211D01*
X170313253Y-107681497D01*
X170313253Y-107681496D01*
X170285771Y-107643672D01*
X170282567Y-107638796D01*
X170258763Y-107598544D01*
X170258761Y-107598542D01*
X170258759Y-107598539D01*
X170244531Y-107584312D01*
X170231896Y-107569520D01*
X170220063Y-107553233D01*
X170220060Y-107553231D01*
X170220060Y-107553230D01*
X170220059Y-107553229D01*
X170184035Y-107523428D01*
X170179713Y-107519494D01*
X164784410Y-102124191D01*
X164750925Y-102062868D01*
X164752317Y-102004415D01*
X164770033Y-101938299D01*
X164770032Y-101938299D01*
X164770035Y-101938292D01*
X164789868Y-101711600D01*
X164786280Y-101670595D01*
X164800046Y-101602098D01*
X164848660Y-101551914D01*
X164916688Y-101535980D01*
X164982532Y-101559354D01*
X164997489Y-101572108D01*
X172056181Y-108630800D01*
X172089666Y-108692123D01*
X172092500Y-108718481D01*
X172092500Y-117639032D01*
X172090772Y-117654681D01*
X172091054Y-117654708D01*
X172090319Y-117662475D01*
X172092500Y-117731859D01*
X172092500Y-117761477D01*
X172093371Y-117768380D01*
X172093829Y-117774199D01*
X172095298Y-117820942D01*
X172100916Y-117840275D01*
X172104862Y-117859329D01*
X172107383Y-117879287D01*
X172107386Y-117879299D01*
X172124595Y-117922765D01*
X172126487Y-117928293D01*
X172139530Y-117973187D01*
X172139530Y-117973188D01*
X172149777Y-117990515D01*
X172158335Y-118007985D01*
X172165745Y-118026701D01*
X172193229Y-118064529D01*
X172196437Y-118069413D01*
X172220234Y-118109652D01*
X172220240Y-118109660D01*
X172234469Y-118123888D01*
X172247109Y-118138687D01*
X172258934Y-118154964D01*
X172258936Y-118154965D01*
X172258937Y-118154967D01*
X172294957Y-118184765D01*
X172299268Y-118188687D01*
X173773245Y-119662664D01*
X175171574Y-121060993D01*
X175205059Y-121122316D01*
X175200075Y-121192008D01*
X175199321Y-121193976D01*
X175173288Y-121260308D01*
X175161493Y-121290362D01*
X175161489Y-121290374D01*
X175104777Y-121538845D01*
X175085732Y-121792995D01*
X175085732Y-121793004D01*
X175104777Y-122047154D01*
X175127464Y-122146553D01*
X175161492Y-122295637D01*
X175254607Y-122532888D01*
X175382041Y-122753612D01*
X175540950Y-122952877D01*
X175727783Y-123126232D01*
X175938366Y-123269805D01*
X175938371Y-123269807D01*
X175938372Y-123269808D01*
X175938373Y-123269809D01*
X176060328Y-123328538D01*
X176167992Y-123380387D01*
X176167993Y-123380387D01*
X176167996Y-123380389D01*
X176411542Y-123455513D01*
X176663565Y-123493500D01*
X176918435Y-123493500D01*
X177170458Y-123455513D01*
X177333339Y-123405271D01*
X177920617Y-123405271D01*
X177920617Y-125939749D01*
X182144897Y-125939749D01*
X182144897Y-123405271D01*
X177920617Y-123405271D01*
X177333339Y-123405271D01*
X177414004Y-123380389D01*
X177643634Y-123269805D01*
X177854217Y-123126232D01*
X178041050Y-122952877D01*
X178199959Y-122753612D01*
X178327393Y-122532888D01*
X178420508Y-122295637D01*
X178477222Y-122047157D01*
X178485384Y-121938232D01*
X178496268Y-121793004D01*
X178496268Y-121792995D01*
X178477222Y-121538845D01*
X178466167Y-121490412D01*
X178420508Y-121290363D01*
X178327393Y-121053112D01*
X178199959Y-120832388D01*
X178041050Y-120633123D01*
X177854217Y-120459768D01*
X177643634Y-120316195D01*
X177643630Y-120316193D01*
X177643627Y-120316191D01*
X177643626Y-120316190D01*
X177414006Y-120205612D01*
X177414008Y-120205612D01*
X177170466Y-120130489D01*
X177170462Y-120130488D01*
X177170458Y-120130487D01*
X177049231Y-120112214D01*
X176918440Y-120092500D01*
X176918435Y-120092500D01*
X176663565Y-120092500D01*
X176663559Y-120092500D01*
X176506609Y-120116157D01*
X176411542Y-120130487D01*
X176411538Y-120130488D01*
X176411539Y-120130488D01*
X176411533Y-120130489D01*
X176224575Y-120188158D01*
X176180571Y-120201732D01*
X176110709Y-120202682D01*
X176056341Y-120170922D01*
X173383819Y-117498400D01*
X173350334Y-117437077D01*
X173347500Y-117410719D01*
X173347500Y-115196004D01*
X175706732Y-115196004D01*
X175725777Y-115450154D01*
X175759395Y-115597446D01*
X175782492Y-115698637D01*
X175875607Y-115935888D01*
X176003041Y-116156612D01*
X176161950Y-116355877D01*
X176348783Y-116529232D01*
X176559366Y-116672805D01*
X176559371Y-116672807D01*
X176559372Y-116672808D01*
X176559373Y-116672809D01*
X176681328Y-116731538D01*
X176788992Y-116783387D01*
X176788993Y-116783387D01*
X176788996Y-116783389D01*
X177032542Y-116858513D01*
X177284565Y-116896500D01*
X177539435Y-116896500D01*
X177791458Y-116858513D01*
X178035004Y-116783389D01*
X178216458Y-116696005D01*
X178264626Y-116672809D01*
X178264626Y-116672808D01*
X178264634Y-116672805D01*
X178475217Y-116529232D01*
X178662050Y-116355877D01*
X178820959Y-116156612D01*
X178948393Y-115935888D01*
X179041508Y-115698637D01*
X179098222Y-115450157D01*
X179109604Y-115298266D01*
X179117268Y-115196004D01*
X179117268Y-115195995D01*
X179098222Y-114941845D01*
X179082274Y-114871974D01*
X179041508Y-114693363D01*
X178948393Y-114456112D01*
X178820959Y-114235388D01*
X178662050Y-114036123D01*
X178475217Y-113862768D01*
X178264634Y-113719195D01*
X178264630Y-113719193D01*
X178264627Y-113719191D01*
X178264626Y-113719190D01*
X178035006Y-113608612D01*
X178035008Y-113608612D01*
X177791466Y-113533489D01*
X177791462Y-113533488D01*
X177791458Y-113533487D01*
X177670231Y-113515214D01*
X177539440Y-113495500D01*
X177539435Y-113495500D01*
X177284565Y-113495500D01*
X177284559Y-113495500D01*
X177127609Y-113519157D01*
X177032542Y-113533487D01*
X177032538Y-113533488D01*
X177032539Y-113533488D01*
X177032533Y-113533489D01*
X176788992Y-113608612D01*
X176559373Y-113719190D01*
X176559372Y-113719191D01*
X176348782Y-113862768D01*
X176161952Y-114036121D01*
X176161950Y-114036123D01*
X176003041Y-114235388D01*
X175875608Y-114456109D01*
X175782492Y-114693362D01*
X175782490Y-114693369D01*
X175725777Y-114941845D01*
X175706732Y-115195995D01*
X175706732Y-115196004D01*
X173347500Y-115196004D01*
X173347500Y-108490164D01*
X173349228Y-108474513D01*
X173348946Y-108474487D01*
X173349680Y-108466724D01*
X173347500Y-108397340D01*
X173347500Y-108367730D01*
X173347500Y-108367724D01*
X173346626Y-108360807D01*
X173346169Y-108354992D01*
X173344701Y-108308258D01*
X173339082Y-108288918D01*
X173335139Y-108269885D01*
X173332616Y-108249907D01*
X173315403Y-108206434D01*
X173313514Y-108200913D01*
X173300467Y-108156007D01*
X173290225Y-108138689D01*
X173281662Y-108121211D01*
X173274253Y-108102497D01*
X173274253Y-108102496D01*
X173246771Y-108064672D01*
X173243567Y-108059796D01*
X173219763Y-108019544D01*
X173219761Y-108019542D01*
X173219759Y-108019539D01*
X173205531Y-108005312D01*
X173192896Y-107990520D01*
X173181063Y-107974233D01*
X173181060Y-107974231D01*
X173181060Y-107974230D01*
X173181059Y-107974229D01*
X173145035Y-107944428D01*
X173140713Y-107940494D01*
X170964908Y-105764689D01*
X170931423Y-105703366D01*
X170936407Y-105633674D01*
X170978279Y-105577741D01*
X171043743Y-105553324D01*
X171063388Y-105553479D01*
X171104400Y-105557068D01*
X171104400Y-105557067D01*
X171104401Y-105557068D01*
X171104402Y-105557068D01*
X171161073Y-105552109D01*
X171331092Y-105537235D01*
X171550896Y-105478339D01*
X171757134Y-105382168D01*
X171943539Y-105251647D01*
X172104447Y-105090739D01*
X172234968Y-104904334D01*
X172331139Y-104698096D01*
X172390035Y-104478292D01*
X172409868Y-104251600D01*
X172390035Y-104024908D01*
X172331139Y-103805104D01*
X172234968Y-103598866D01*
X172104447Y-103412461D01*
X172104445Y-103412458D01*
X171943541Y-103251554D01*
X171757134Y-103121032D01*
X171757128Y-103121029D01*
X171717178Y-103102400D01*
X171699124Y-103093981D01*
X171646685Y-103047810D01*
X171627533Y-102980617D01*
X171647748Y-102913735D01*
X171699125Y-102869218D01*
X171757134Y-102842168D01*
X171943539Y-102711647D01*
X172104447Y-102550739D01*
X172234968Y-102364334D01*
X172331139Y-102158096D01*
X172390035Y-101938292D01*
X172409868Y-101711600D01*
X172409394Y-101706187D01*
X172390035Y-101484913D01*
X172390035Y-101484908D01*
X172331139Y-101265104D01*
X172234968Y-101058866D01*
X172104447Y-100872461D01*
X172104445Y-100872458D01*
X171943541Y-100711554D01*
X171757134Y-100581032D01*
X171757128Y-100581029D01*
X171699125Y-100553982D01*
X171646685Y-100507810D01*
X171627533Y-100440617D01*
X171647748Y-100373735D01*
X171699125Y-100329218D01*
X171757134Y-100302168D01*
X171908753Y-100196004D01*
X175707233Y-100196004D01*
X175726273Y-100450079D01*
X175782968Y-100698477D01*
X175782973Y-100698494D01*
X175876058Y-100935671D01*
X175876057Y-100935671D01*
X176003457Y-101156332D01*
X176045452Y-101208993D01*
X176849226Y-100405219D01*
X176887901Y-100498588D01*
X176984075Y-100623925D01*
X177109412Y-100720099D01*
X177202779Y-100758772D01*
X176398813Y-101562737D01*
X176559623Y-101672375D01*
X176559624Y-101672376D01*
X176789176Y-101782921D01*
X176789174Y-101782921D01*
X177032652Y-101858024D01*
X177032658Y-101858026D01*
X177284595Y-101895999D01*
X177284604Y-101896000D01*
X177539396Y-101896000D01*
X177539404Y-101895999D01*
X177791341Y-101858026D01*
X177791347Y-101858024D01*
X178034824Y-101782921D01*
X178264381Y-101672373D01*
X178425185Y-101562737D01*
X177621220Y-100758772D01*
X177714588Y-100720099D01*
X177839925Y-100623925D01*
X177936099Y-100498589D01*
X177974772Y-100405220D01*
X178778545Y-101208993D01*
X178820545Y-101156327D01*
X178947941Y-100935671D01*
X179041026Y-100698494D01*
X179041031Y-100698477D01*
X179097726Y-100450079D01*
X179116767Y-100196004D01*
X179116767Y-100195995D01*
X179097726Y-99941920D01*
X179041031Y-99693522D01*
X179041026Y-99693505D01*
X178947941Y-99456328D01*
X178947942Y-99456328D01*
X178820544Y-99235671D01*
X178778546Y-99183006D01*
X177974772Y-99986779D01*
X177936099Y-99893412D01*
X177839925Y-99768075D01*
X177714588Y-99671901D01*
X177621220Y-99633227D01*
X178425185Y-98829261D01*
X178264377Y-98719624D01*
X178264376Y-98719623D01*
X178034823Y-98609078D01*
X178034825Y-98609078D01*
X177791347Y-98533975D01*
X177791341Y-98533973D01*
X177539404Y-98496000D01*
X177284595Y-98496000D01*
X177032658Y-98533973D01*
X177032652Y-98533975D01*
X176789175Y-98609078D01*
X176559624Y-98719623D01*
X176559616Y-98719628D01*
X176398813Y-98829261D01*
X177202779Y-99633227D01*
X177109412Y-99671901D01*
X176984075Y-99768075D01*
X176887901Y-99893411D01*
X176849226Y-99986779D01*
X176045453Y-99183006D01*
X176003455Y-99235670D01*
X175876058Y-99456328D01*
X175782973Y-99693505D01*
X175782968Y-99693522D01*
X175726273Y-99941920D01*
X175707233Y-100195995D01*
X175707233Y-100196004D01*
X171908753Y-100196004D01*
X171943539Y-100171647D01*
X172104447Y-100010739D01*
X172234968Y-99824334D01*
X172331139Y-99618096D01*
X172390035Y-99398292D01*
X172409868Y-99171600D01*
X172390035Y-98944908D01*
X172331139Y-98725104D01*
X172234968Y-98518866D01*
X172104447Y-98332461D01*
X172104445Y-98332458D01*
X171943541Y-98171554D01*
X171757134Y-98041032D01*
X171757128Y-98041029D01*
X171699125Y-98013982D01*
X171646685Y-97967810D01*
X171627533Y-97900617D01*
X171647748Y-97833735D01*
X171699125Y-97789218D01*
X171757134Y-97762168D01*
X171943539Y-97631647D01*
X172104447Y-97470739D01*
X172234968Y-97284334D01*
X172326222Y-97088641D01*
X176584310Y-97088641D01*
X176584311Y-97088642D01*
X176672581Y-97143296D01*
X176672588Y-97143300D01*
X176862678Y-97216940D01*
X177063072Y-97254401D01*
X177266928Y-97254401D01*
X177467321Y-97216940D01*
X177657414Y-97143298D01*
X177745688Y-97088641D01*
X177165001Y-96507954D01*
X177165000Y-96507954D01*
X176584310Y-97088641D01*
X172326222Y-97088641D01*
X172331139Y-97078096D01*
X172390035Y-96858292D01*
X172409868Y-96631600D01*
X172390035Y-96404908D01*
X172331139Y-96185104D01*
X172316822Y-96154401D01*
X176060287Y-96154401D01*
X176079096Y-96357390D01*
X176079097Y-96357393D01*
X176134883Y-96553464D01*
X176134886Y-96553470D01*
X176225754Y-96735957D01*
X176225755Y-96735958D01*
X176227533Y-96738313D01*
X176869654Y-96096191D01*
X176861105Y-96126241D01*
X176871454Y-96237922D01*
X176921448Y-96338323D01*
X177004334Y-96413885D01*
X177108920Y-96454401D01*
X177192802Y-96454401D01*
X177275250Y-96438989D01*
X177370610Y-96379944D01*
X177438201Y-96290439D01*
X177468895Y-96182561D01*
X177460947Y-96096795D01*
X178102465Y-96738313D01*
X178104247Y-96735953D01*
X178104249Y-96735951D01*
X178195113Y-96553470D01*
X178195116Y-96553464D01*
X178250902Y-96357393D01*
X178250903Y-96357390D01*
X178269713Y-96154401D01*
X178269713Y-96154400D01*
X178250903Y-95951411D01*
X178250902Y-95951409D01*
X178195115Y-95755337D01*
X178195110Y-95755326D01*
X178157311Y-95679414D01*
X178145050Y-95610629D01*
X178169045Y-95549832D01*
X178208796Y-95496732D01*
X178259091Y-95361884D01*
X178265500Y-95302274D01*
X178265499Y-94006529D01*
X178259091Y-93946918D01*
X178208796Y-93812070D01*
X178208795Y-93812069D01*
X178208793Y-93812065D01*
X178122547Y-93696856D01*
X178122544Y-93696853D01*
X178007335Y-93610607D01*
X178007328Y-93610603D01*
X177872482Y-93560309D01*
X177872483Y-93560309D01*
X177812883Y-93553902D01*
X177812881Y-93553901D01*
X177812873Y-93553901D01*
X177812864Y-93553901D01*
X176517129Y-93553901D01*
X176517123Y-93553902D01*
X176457516Y-93560309D01*
X176322671Y-93610603D01*
X176322664Y-93610607D01*
X176207455Y-93696853D01*
X176207452Y-93696856D01*
X176121206Y-93812065D01*
X176121202Y-93812072D01*
X176070908Y-93946918D01*
X176064501Y-94006517D01*
X176064501Y-94006524D01*
X176064500Y-94006536D01*
X176064500Y-95302271D01*
X176064501Y-95302277D01*
X176070908Y-95361884D01*
X176121202Y-95496729D01*
X176121206Y-95496736D01*
X176160954Y-95549832D01*
X176185372Y-95615296D01*
X176172688Y-95679414D01*
X176134888Y-95755326D01*
X176134883Y-95755337D01*
X176079097Y-95951408D01*
X176079096Y-95951411D01*
X176060287Y-96154400D01*
X176060287Y-96154401D01*
X172316822Y-96154401D01*
X172234968Y-95978866D01*
X172104447Y-95792461D01*
X172104445Y-95792458D01*
X171943541Y-95631554D01*
X171757134Y-95501032D01*
X171757132Y-95501031D01*
X171550897Y-95404861D01*
X171550888Y-95404858D01*
X171331097Y-95345966D01*
X171331093Y-95345965D01*
X171331092Y-95345965D01*
X171331091Y-95345964D01*
X171331086Y-95345964D01*
X171104402Y-95326132D01*
X171104398Y-95326132D01*
X170877713Y-95345964D01*
X170877702Y-95345966D01*
X170657911Y-95404858D01*
X170657902Y-95404861D01*
X170451667Y-95501031D01*
X170451665Y-95501032D01*
X170265258Y-95631554D01*
X170104354Y-95792458D01*
X169973832Y-95978865D01*
X169973831Y-95978867D01*
X169877661Y-96185102D01*
X169877658Y-96185111D01*
X169818766Y-96404902D01*
X169818764Y-96404913D01*
X169798932Y-96631598D01*
X169798932Y-96631601D01*
X169818764Y-96858286D01*
X169818766Y-96858297D01*
X169877658Y-97078088D01*
X169877661Y-97078097D01*
X169973831Y-97284332D01*
X169973832Y-97284334D01*
X170104354Y-97470741D01*
X170265258Y-97631645D01*
X170265261Y-97631647D01*
X170451666Y-97762168D01*
X170509675Y-97789218D01*
X170562114Y-97835391D01*
X170581266Y-97902584D01*
X170561050Y-97969465D01*
X170509675Y-98013982D01*
X170451667Y-98041031D01*
X170451665Y-98041032D01*
X170265258Y-98171554D01*
X170104354Y-98332458D01*
X169973832Y-98518865D01*
X169973831Y-98518867D01*
X169877661Y-98725102D01*
X169877658Y-98725111D01*
X169824812Y-98922339D01*
X169788447Y-98982000D01*
X169725600Y-99012529D01*
X169656225Y-99004234D01*
X169617356Y-98977927D01*
X168684819Y-98045390D01*
X168651334Y-97984067D01*
X168648500Y-97957709D01*
X168648500Y-95415352D01*
X168648705Y-95410317D01*
X168653373Y-95352991D01*
X168653372Y-95352985D01*
X168642040Y-95269802D01*
X168632967Y-95186388D01*
X168632965Y-95186380D01*
X168632881Y-95186130D01*
X168627526Y-95163280D01*
X168627489Y-95163006D01*
X168598536Y-95084200D01*
X168571745Y-95004685D01*
X168571741Y-95004677D01*
X168571603Y-95004447D01*
X168561462Y-94983285D01*
X168561368Y-94983031D01*
X168561368Y-94983030D01*
X168516162Y-94912306D01*
X168472894Y-94840393D01*
X168472876Y-94840374D01*
X168472707Y-94840195D01*
X168458249Y-94821700D01*
X168458107Y-94821478D01*
X168458106Y-94821477D01*
X168458105Y-94821475D01*
X168398749Y-94762119D01*
X168341036Y-94701192D01*
X168340806Y-94701036D01*
X168322718Y-94686088D01*
X163839210Y-90202581D01*
X163805725Y-90141258D01*
X163810709Y-90071566D01*
X163852581Y-90015633D01*
X163918045Y-89991216D01*
X163926891Y-89990900D01*
X164146635Y-89990900D01*
X164398658Y-89952913D01*
X164642204Y-89877789D01*
X164871834Y-89767205D01*
X165082417Y-89623632D01*
X165269250Y-89450277D01*
X165428159Y-89251012D01*
X165555593Y-89030288D01*
X165648708Y-88793037D01*
X165705422Y-88544557D01*
X165716595Y-88395455D01*
X165724468Y-88290404D01*
X177313932Y-88290404D01*
X177332977Y-88544554D01*
X177377869Y-88741240D01*
X177389692Y-88793037D01*
X177482807Y-89030288D01*
X177610241Y-89251012D01*
X177769150Y-89450277D01*
X177955983Y-89623632D01*
X178166566Y-89767205D01*
X178166571Y-89767207D01*
X178166572Y-89767208D01*
X178166573Y-89767209D01*
X178240895Y-89803000D01*
X178396192Y-89877787D01*
X178396193Y-89877787D01*
X178396196Y-89877789D01*
X178639742Y-89952913D01*
X178891765Y-89990900D01*
X179146635Y-89990900D01*
X179398658Y-89952913D01*
X179642204Y-89877789D01*
X179871834Y-89767205D01*
X180082417Y-89623632D01*
X180269250Y-89450277D01*
X180428159Y-89251012D01*
X180555593Y-89030288D01*
X180648708Y-88793037D01*
X180705422Y-88544557D01*
X180716595Y-88395455D01*
X180724468Y-88290404D01*
X180724468Y-88290395D01*
X180705422Y-88036245D01*
X180696576Y-87997489D01*
X180648708Y-87787763D01*
X180555593Y-87550512D01*
X180428159Y-87329788D01*
X180269250Y-87130523D01*
X180082417Y-86957168D01*
X179871834Y-86813595D01*
X179871830Y-86813593D01*
X179871827Y-86813591D01*
X179871826Y-86813590D01*
X179642206Y-86703012D01*
X179642208Y-86703012D01*
X179398666Y-86627889D01*
X179398662Y-86627888D01*
X179398658Y-86627887D01*
X179277431Y-86609614D01*
X179146640Y-86589900D01*
X179146635Y-86589900D01*
X178891765Y-86589900D01*
X178891759Y-86589900D01*
X178734809Y-86613557D01*
X178639742Y-86627887D01*
X178639738Y-86627888D01*
X178639739Y-86627888D01*
X178639733Y-86627889D01*
X178396192Y-86703012D01*
X178166573Y-86813590D01*
X178166572Y-86813591D01*
X177955982Y-86957168D01*
X177769152Y-87130521D01*
X177769150Y-87130523D01*
X177610241Y-87329788D01*
X177482808Y-87550509D01*
X177389692Y-87787762D01*
X177389690Y-87787769D01*
X177332977Y-88036245D01*
X177313932Y-88290395D01*
X177313932Y-88290404D01*
X165724468Y-88290404D01*
X165724468Y-88290395D01*
X165705422Y-88036245D01*
X165696576Y-87997489D01*
X165648708Y-87787763D01*
X165555593Y-87550512D01*
X165428159Y-87329788D01*
X165269250Y-87130523D01*
X165082417Y-86957168D01*
X164871834Y-86813595D01*
X164871830Y-86813593D01*
X164871827Y-86813591D01*
X164871826Y-86813590D01*
X164642206Y-86703012D01*
X164642208Y-86703012D01*
X164398666Y-86627889D01*
X164398662Y-86627888D01*
X164398658Y-86627887D01*
X164277431Y-86609614D01*
X164146640Y-86589900D01*
X164146635Y-86589900D01*
X163891765Y-86589900D01*
X163891759Y-86589900D01*
X163734809Y-86613557D01*
X163639742Y-86627887D01*
X163639738Y-86627888D01*
X163639739Y-86627888D01*
X163639733Y-86627889D01*
X163396192Y-86703012D01*
X163166573Y-86813590D01*
X163166572Y-86813591D01*
X162955982Y-86957168D01*
X162769152Y-87130521D01*
X162769150Y-87130523D01*
X162610241Y-87329788D01*
X162482808Y-87550509D01*
X162389692Y-87787762D01*
X162389690Y-87787769D01*
X162332977Y-88036245D01*
X162313932Y-88290395D01*
X162313932Y-88290405D01*
X162320300Y-88375391D01*
X162305680Y-88443713D01*
X162256443Y-88493286D01*
X162188220Y-88508369D01*
X162122674Y-88484175D01*
X162108966Y-88472337D01*
X161879077Y-88242448D01*
X161534027Y-87897398D01*
X161530624Y-87893706D01*
X161493381Y-87849860D01*
X161426546Y-87799054D01*
X161361148Y-87746485D01*
X161361147Y-87746484D01*
X161360897Y-87746360D01*
X161340969Y-87733999D01*
X161340742Y-87733827D01*
X161340743Y-87733827D01*
X161340741Y-87733826D01*
X161264551Y-87698577D01*
X161189374Y-87661293D01*
X161189370Y-87661292D01*
X161189367Y-87661291D01*
X161189098Y-87661224D01*
X161166977Y-87653434D01*
X161166729Y-87653319D01*
X161166724Y-87653317D01*
X161084757Y-87635275D01*
X161003305Y-87615019D01*
X161003297Y-87615018D01*
X161003024Y-87615011D01*
X160979744Y-87612160D01*
X160979474Y-87612100D01*
X160979469Y-87612100D01*
X160895546Y-87612100D01*
X160811639Y-87609827D01*
X160811638Y-87609827D01*
X160811636Y-87609827D01*
X160811361Y-87609879D01*
X160788003Y-87612100D01*
X160677699Y-87612100D01*
X160610660Y-87592415D01*
X160564905Y-87539611D01*
X160553699Y-87488100D01*
X160553699Y-87345729D01*
X160553698Y-87345723D01*
X160553697Y-87345716D01*
X160547291Y-87286117D01*
X160513217Y-87194761D01*
X160496997Y-87151271D01*
X160496993Y-87151264D01*
X160410747Y-87036055D01*
X160410744Y-87036052D01*
X160295535Y-86949806D01*
X160295528Y-86949802D01*
X160160682Y-86899508D01*
X160160683Y-86899508D01*
X160101083Y-86893101D01*
X160101081Y-86893100D01*
X160101073Y-86893100D01*
X160101064Y-86893100D01*
X157805329Y-86893100D01*
X157805323Y-86893101D01*
X157745716Y-86899508D01*
X157610871Y-86949802D01*
X157610864Y-86949806D01*
X157495655Y-87036052D01*
X157495652Y-87036055D01*
X157409406Y-87151264D01*
X157409402Y-87151271D01*
X157359108Y-87286117D01*
X157352701Y-87345716D01*
X157352701Y-87345723D01*
X157352700Y-87345735D01*
X157352700Y-89641470D01*
X149913617Y-89641470D01*
X149928424Y-89628824D01*
X150092036Y-89437259D01*
X150223666Y-89222459D01*
X150320073Y-88989711D01*
X150378883Y-88744748D01*
X150398649Y-88493600D01*
X150378883Y-88242452D01*
X150320073Y-87997489D01*
X150320072Y-87997488D01*
X150223666Y-87764740D01*
X150092039Y-87549946D01*
X150092038Y-87549943D01*
X150039219Y-87488100D01*
X149928424Y-87358376D01*
X149801771Y-87250204D01*
X149736856Y-87194761D01*
X149736853Y-87194760D01*
X149522059Y-87063133D01*
X149289310Y-86966726D01*
X149044351Y-86907917D01*
X148793200Y-86888151D01*
X148542048Y-86907917D01*
X148297089Y-86966726D01*
X148064340Y-87063133D01*
X147849546Y-87194760D01*
X147849543Y-87194761D01*
X147657976Y-87358376D01*
X147494361Y-87549943D01*
X147494360Y-87549946D01*
X147362733Y-87764740D01*
X147266326Y-87997489D01*
X147207517Y-88242448D01*
X147187751Y-88493600D01*
X141296446Y-88493600D01*
X141343927Y-88446119D01*
X141227778Y-88374202D01*
X141227777Y-88374201D01*
X141020404Y-88293865D01*
X140801793Y-88253000D01*
X140579407Y-88253000D01*
X140360795Y-88293865D01*
X140153424Y-88374200D01*
X140153423Y-88374201D01*
X140037271Y-88446119D01*
X137976074Y-88446119D01*
X137938147Y-88395455D01*
X137938144Y-88395452D01*
X137822935Y-88309206D01*
X137822928Y-88309202D01*
X137688082Y-88258908D01*
X137688083Y-88258908D01*
X137628483Y-88252501D01*
X137628481Y-88252500D01*
X137628473Y-88252500D01*
X137628464Y-88252500D01*
X136132729Y-88252500D01*
X136132723Y-88252501D01*
X136073116Y-88258908D01*
X135938271Y-88309202D01*
X135938264Y-88309206D01*
X135823055Y-88395452D01*
X135823052Y-88395455D01*
X135736806Y-88510664D01*
X135736802Y-88510671D01*
X135686508Y-88645517D01*
X135680101Y-88705116D01*
X135680101Y-88705123D01*
X135680100Y-88705135D01*
X135680100Y-90200870D01*
X127508500Y-90200870D01*
X127508500Y-83182500D01*
X127528185Y-83115461D01*
X127580989Y-83069706D01*
X127632500Y-83058500D01*
X183517500Y-83058500D01*
X183584539Y-83078185D01*
G37*
%TD.AperFunction*%
%TD*%
M02*
