M48
; DRILL file {KiCad 7.0.6} date Tue Nov 28 22:23:44 2023
; FORMAT={-:-/ absolute / inch / decimal}
; #@! TF.CreationDate,2023-11-28T22:23:44+05:30
; #@! TF.GenerationSoftware,Kicad,Pcbnew,7.0.6
; #@! TF.FileFunction,Plated,1,2,PTH
FMAT,2
INCH
; #@! TA.AperFunction,Plated,PTH,ComponentDrill
T1C0.0236
; #@! TA.AperFunction,Plated,PTH,ComponentDrill
T2C0.0276
; #@! TA.AperFunction,Plated,PTH,ComponentDrill
T3C0.0315
; #@! TA.AperFunction,Plated,PTH,ComponentDrill
T4C0.0394
; #@! TA.AperFunction,Plated,PTH,ComponentDrill
T5C0.0433
; #@! TA.AperFunction,Plated,PTH,ComponentDrill
T6C0.0472
%
G90
G05
T1
X6.975Y-3.7266
X6.975Y-3.7856
T2
X5.389Y-3.5218
X5.395Y-4.7482
X5.539Y-3.5218
X5.545Y-4.7482
T3
X5.9977Y-4.0591
X6.0Y-3.7266
X6.0Y-3.886
X6.2977Y-4.0591
X6.3Y-3.7266
X6.3Y-3.886
X6.4364Y-3.8044
X6.4364Y-3.9044
X6.4364Y-4.0044
X6.4364Y-4.1044
X6.4866Y-4.335
X6.4916Y-4.565
X6.6834Y-4.335
X6.6884Y-4.565
X6.7364Y-3.8044
X6.7364Y-3.9044
X6.7364Y-4.0044
X6.7364Y-4.1044
T4
X5.9Y-4.685
X6.0969Y-4.685
T5
X5.858Y-3.484
X6.258Y-3.484
T6
X6.3697Y-4.795
X6.4574Y-3.476
X6.9603Y-4.795
X6.9847Y-3.9447
X6.9847Y-4.5353
X7.048Y-3.476
T0
M30
