%TF.GenerationSoftware,KiCad,Pcbnew,7.0.6*%
%TF.CreationDate,2023-11-28T22:22:28+05:30*%
%TF.ProjectId,LM386_Board,4c4d3338-365f-4426-9f61-72642e6b6963,v01*%
%TF.SameCoordinates,Original*%
%TF.FileFunction,Legend,Top*%
%TF.FilePolarity,Positive*%
%FSLAX46Y46*%
G04 Gerber Fmt 4.6, Leading zero omitted, Abs format (unit mm)*
G04 Created by KiCad (PCBNEW 7.0.6) date 2023-11-28 22:22:28*
%MOMM*%
%LPD*%
G01*
G04 APERTURE LIST*
%ADD10C,0.254000*%
%ADD11C,0.120000*%
G04 APERTURE END LIST*
D10*
X144233485Y-123299558D02*
X145201105Y-123299558D01*
X144717295Y-123783368D02*
X144717295Y-122815749D01*
X128050057Y-83524368D02*
X128473390Y-84794368D01*
X128473390Y-84794368D02*
X128896724Y-83524368D01*
X130227199Y-84733892D02*
X130408628Y-84794368D01*
X130408628Y-84794368D02*
X130711009Y-84794368D01*
X130711009Y-84794368D02*
X130831961Y-84733892D01*
X130831961Y-84733892D02*
X130892437Y-84673415D01*
X130892437Y-84673415D02*
X130952914Y-84552463D01*
X130952914Y-84552463D02*
X130952914Y-84431511D01*
X130952914Y-84431511D02*
X130892437Y-84310558D01*
X130892437Y-84310558D02*
X130831961Y-84250082D01*
X130831961Y-84250082D02*
X130711009Y-84189606D01*
X130711009Y-84189606D02*
X130469104Y-84129130D01*
X130469104Y-84129130D02*
X130348152Y-84068653D01*
X130348152Y-84068653D02*
X130287675Y-84008177D01*
X130287675Y-84008177D02*
X130227199Y-83887225D01*
X130227199Y-83887225D02*
X130227199Y-83766272D01*
X130227199Y-83766272D02*
X130287675Y-83645320D01*
X130287675Y-83645320D02*
X130348152Y-83584844D01*
X130348152Y-83584844D02*
X130469104Y-83524368D01*
X130469104Y-83524368D02*
X130771485Y-83524368D01*
X130771485Y-83524368D02*
X130952914Y-83584844D01*
X131678628Y-84794368D02*
X131557676Y-84733892D01*
X131557676Y-84733892D02*
X131497199Y-84673415D01*
X131497199Y-84673415D02*
X131436723Y-84552463D01*
X131436723Y-84552463D02*
X131436723Y-84189606D01*
X131436723Y-84189606D02*
X131497199Y-84068653D01*
X131497199Y-84068653D02*
X131557676Y-84008177D01*
X131557676Y-84008177D02*
X131678628Y-83947701D01*
X131678628Y-83947701D02*
X131860057Y-83947701D01*
X131860057Y-83947701D02*
X131981009Y-84008177D01*
X131981009Y-84008177D02*
X132041485Y-84068653D01*
X132041485Y-84068653D02*
X132101961Y-84189606D01*
X132101961Y-84189606D02*
X132101961Y-84552463D01*
X132101961Y-84552463D02*
X132041485Y-84673415D01*
X132041485Y-84673415D02*
X131981009Y-84733892D01*
X131981009Y-84733892D02*
X131860057Y-84794368D01*
X131860057Y-84794368D02*
X131678628Y-84794368D01*
X133190533Y-83947701D02*
X133190533Y-84794368D01*
X132646247Y-83947701D02*
X132646247Y-84612939D01*
X132646247Y-84612939D02*
X132706724Y-84733892D01*
X132706724Y-84733892D02*
X132827676Y-84794368D01*
X132827676Y-84794368D02*
X133009105Y-84794368D01*
X133009105Y-84794368D02*
X133130057Y-84733892D01*
X133130057Y-84733892D02*
X133190533Y-84673415D01*
X133795295Y-84794368D02*
X133795295Y-83947701D01*
X133795295Y-84189606D02*
X133855772Y-84068653D01*
X133855772Y-84068653D02*
X133916248Y-84008177D01*
X133916248Y-84008177D02*
X134037200Y-83947701D01*
X134037200Y-83947701D02*
X134158153Y-83947701D01*
X135125771Y-84733892D02*
X135004819Y-84794368D01*
X135004819Y-84794368D02*
X134762914Y-84794368D01*
X134762914Y-84794368D02*
X134641962Y-84733892D01*
X134641962Y-84733892D02*
X134581485Y-84673415D01*
X134581485Y-84673415D02*
X134521009Y-84552463D01*
X134521009Y-84552463D02*
X134521009Y-84189606D01*
X134521009Y-84189606D02*
X134581485Y-84068653D01*
X134581485Y-84068653D02*
X134641962Y-84008177D01*
X134641962Y-84008177D02*
X134762914Y-83947701D01*
X134762914Y-83947701D02*
X135004819Y-83947701D01*
X135004819Y-83947701D02*
X135125771Y-84008177D01*
X136153866Y-84733892D02*
X136032914Y-84794368D01*
X136032914Y-84794368D02*
X135791009Y-84794368D01*
X135791009Y-84794368D02*
X135670056Y-84733892D01*
X135670056Y-84733892D02*
X135609580Y-84612939D01*
X135609580Y-84612939D02*
X135609580Y-84129130D01*
X135609580Y-84129130D02*
X135670056Y-84008177D01*
X135670056Y-84008177D02*
X135791009Y-83947701D01*
X135791009Y-83947701D02*
X136032914Y-83947701D01*
X136032914Y-83947701D02*
X136153866Y-84008177D01*
X136153866Y-84008177D02*
X136214342Y-84129130D01*
X136214342Y-84129130D02*
X136214342Y-84250082D01*
X136214342Y-84250082D02*
X135609580Y-84371034D01*
X138089104Y-85278177D02*
X138028627Y-85217701D01*
X138028627Y-85217701D02*
X137907675Y-85036272D01*
X137907675Y-85036272D02*
X137847199Y-84915320D01*
X137847199Y-84915320D02*
X137786723Y-84733892D01*
X137786723Y-84733892D02*
X137726246Y-84431511D01*
X137726246Y-84431511D02*
X137726246Y-84189606D01*
X137726246Y-84189606D02*
X137786723Y-83887225D01*
X137786723Y-83887225D02*
X137847199Y-83705796D01*
X137847199Y-83705796D02*
X137907675Y-83584844D01*
X137907675Y-83584844D02*
X138028627Y-83403415D01*
X138028627Y-83403415D02*
X138089104Y-83342939D01*
X139177675Y-83524368D02*
X138572913Y-83524368D01*
X138572913Y-83524368D02*
X138512437Y-84129130D01*
X138512437Y-84129130D02*
X138572913Y-84068653D01*
X138572913Y-84068653D02*
X138693866Y-84008177D01*
X138693866Y-84008177D02*
X138996247Y-84008177D01*
X138996247Y-84008177D02*
X139117199Y-84068653D01*
X139117199Y-84068653D02*
X139177675Y-84129130D01*
X139177675Y-84129130D02*
X139238152Y-84250082D01*
X139238152Y-84250082D02*
X139238152Y-84552463D01*
X139238152Y-84552463D02*
X139177675Y-84673415D01*
X139177675Y-84673415D02*
X139117199Y-84733892D01*
X139117199Y-84733892D02*
X138996247Y-84794368D01*
X138996247Y-84794368D02*
X138693866Y-84794368D01*
X138693866Y-84794368D02*
X138572913Y-84733892D01*
X138572913Y-84733892D02*
X138512437Y-84673415D01*
X140568628Y-83524368D02*
X140991961Y-84794368D01*
X140991961Y-84794368D02*
X141415295Y-83524368D01*
X142806246Y-84310558D02*
X143773866Y-84310558D01*
X146011485Y-84794368D02*
X145285770Y-84794368D01*
X145648627Y-84794368D02*
X145648627Y-83524368D01*
X145648627Y-83524368D02*
X145527675Y-83705796D01*
X145527675Y-83705796D02*
X145406723Y-83826749D01*
X145406723Y-83826749D02*
X145285770Y-83887225D01*
X146737199Y-84068653D02*
X146616247Y-84008177D01*
X146616247Y-84008177D02*
X146555770Y-83947701D01*
X146555770Y-83947701D02*
X146495294Y-83826749D01*
X146495294Y-83826749D02*
X146495294Y-83766272D01*
X146495294Y-83766272D02*
X146555770Y-83645320D01*
X146555770Y-83645320D02*
X146616247Y-83584844D01*
X146616247Y-83584844D02*
X146737199Y-83524368D01*
X146737199Y-83524368D02*
X146979104Y-83524368D01*
X146979104Y-83524368D02*
X147100056Y-83584844D01*
X147100056Y-83584844D02*
X147160532Y-83645320D01*
X147160532Y-83645320D02*
X147221009Y-83766272D01*
X147221009Y-83766272D02*
X147221009Y-83826749D01*
X147221009Y-83826749D02*
X147160532Y-83947701D01*
X147160532Y-83947701D02*
X147100056Y-84008177D01*
X147100056Y-84008177D02*
X146979104Y-84068653D01*
X146979104Y-84068653D02*
X146737199Y-84068653D01*
X146737199Y-84068653D02*
X146616247Y-84129130D01*
X146616247Y-84129130D02*
X146555770Y-84189606D01*
X146555770Y-84189606D02*
X146495294Y-84310558D01*
X146495294Y-84310558D02*
X146495294Y-84552463D01*
X146495294Y-84552463D02*
X146555770Y-84673415D01*
X146555770Y-84673415D02*
X146616247Y-84733892D01*
X146616247Y-84733892D02*
X146737199Y-84794368D01*
X146737199Y-84794368D02*
X146979104Y-84794368D01*
X146979104Y-84794368D02*
X147100056Y-84733892D01*
X147100056Y-84733892D02*
X147160532Y-84673415D01*
X147160532Y-84673415D02*
X147221009Y-84552463D01*
X147221009Y-84552463D02*
X147221009Y-84310558D01*
X147221009Y-84310558D02*
X147160532Y-84189606D01*
X147160532Y-84189606D02*
X147100056Y-84129130D01*
X147100056Y-84129130D02*
X146979104Y-84068653D01*
X148551485Y-83524368D02*
X148974818Y-84794368D01*
X148974818Y-84794368D02*
X149398152Y-83524368D01*
X149700532Y-85278177D02*
X149761008Y-85217701D01*
X149761008Y-85217701D02*
X149881961Y-85036272D01*
X149881961Y-85036272D02*
X149942437Y-84915320D01*
X149942437Y-84915320D02*
X150002913Y-84733892D01*
X150002913Y-84733892D02*
X150063389Y-84431511D01*
X150063389Y-84431511D02*
X150063389Y-84189606D01*
X150063389Y-84189606D02*
X150002913Y-83887225D01*
X150002913Y-83887225D02*
X149942437Y-83705796D01*
X149942437Y-83705796D02*
X149881961Y-83584844D01*
X149881961Y-83584844D02*
X149761008Y-83403415D01*
X149761008Y-83403415D02*
X149700532Y-83342939D01*
X128298009Y-125881892D02*
X128479438Y-125942368D01*
X128479438Y-125942368D02*
X128781819Y-125942368D01*
X128781819Y-125942368D02*
X128902771Y-125881892D01*
X128902771Y-125881892D02*
X128963247Y-125821415D01*
X128963247Y-125821415D02*
X129023724Y-125700463D01*
X129023724Y-125700463D02*
X129023724Y-125579511D01*
X129023724Y-125579511D02*
X128963247Y-125458558D01*
X128963247Y-125458558D02*
X128902771Y-125398082D01*
X128902771Y-125398082D02*
X128781819Y-125337606D01*
X128781819Y-125337606D02*
X128539914Y-125277130D01*
X128539914Y-125277130D02*
X128418962Y-125216653D01*
X128418962Y-125216653D02*
X128358485Y-125156177D01*
X128358485Y-125156177D02*
X128298009Y-125035225D01*
X128298009Y-125035225D02*
X128298009Y-124914272D01*
X128298009Y-124914272D02*
X128358485Y-124793320D01*
X128358485Y-124793320D02*
X128418962Y-124732844D01*
X128418962Y-124732844D02*
X128539914Y-124672368D01*
X128539914Y-124672368D02*
X128842295Y-124672368D01*
X128842295Y-124672368D02*
X129023724Y-124732844D01*
X129568009Y-125095701D02*
X129568009Y-126365701D01*
X129568009Y-125156177D02*
X129688962Y-125095701D01*
X129688962Y-125095701D02*
X129930867Y-125095701D01*
X129930867Y-125095701D02*
X130051819Y-125156177D01*
X130051819Y-125156177D02*
X130112295Y-125216653D01*
X130112295Y-125216653D02*
X130172771Y-125337606D01*
X130172771Y-125337606D02*
X130172771Y-125700463D01*
X130172771Y-125700463D02*
X130112295Y-125821415D01*
X130112295Y-125821415D02*
X130051819Y-125881892D01*
X130051819Y-125881892D02*
X129930867Y-125942368D01*
X129930867Y-125942368D02*
X129688962Y-125942368D01*
X129688962Y-125942368D02*
X129568009Y-125881892D01*
X131200867Y-125881892D02*
X131079915Y-125942368D01*
X131079915Y-125942368D02*
X130838010Y-125942368D01*
X130838010Y-125942368D02*
X130717057Y-125881892D01*
X130717057Y-125881892D02*
X130656581Y-125760939D01*
X130656581Y-125760939D02*
X130656581Y-125277130D01*
X130656581Y-125277130D02*
X130717057Y-125156177D01*
X130717057Y-125156177D02*
X130838010Y-125095701D01*
X130838010Y-125095701D02*
X131079915Y-125095701D01*
X131079915Y-125095701D02*
X131200867Y-125156177D01*
X131200867Y-125156177D02*
X131261343Y-125277130D01*
X131261343Y-125277130D02*
X131261343Y-125398082D01*
X131261343Y-125398082D02*
X130656581Y-125519034D01*
X132349914Y-125942368D02*
X132349914Y-125277130D01*
X132349914Y-125277130D02*
X132289438Y-125156177D01*
X132289438Y-125156177D02*
X132168486Y-125095701D01*
X132168486Y-125095701D02*
X131926581Y-125095701D01*
X131926581Y-125095701D02*
X131805628Y-125156177D01*
X132349914Y-125881892D02*
X132228962Y-125942368D01*
X132228962Y-125942368D02*
X131926581Y-125942368D01*
X131926581Y-125942368D02*
X131805628Y-125881892D01*
X131805628Y-125881892D02*
X131745152Y-125760939D01*
X131745152Y-125760939D02*
X131745152Y-125639987D01*
X131745152Y-125639987D02*
X131805628Y-125519034D01*
X131805628Y-125519034D02*
X131926581Y-125458558D01*
X131926581Y-125458558D02*
X132228962Y-125458558D01*
X132228962Y-125458558D02*
X132349914Y-125398082D01*
X132954676Y-125942368D02*
X132954676Y-124672368D01*
X133075629Y-125458558D02*
X133438486Y-125942368D01*
X133438486Y-125095701D02*
X132954676Y-125579511D01*
X134466581Y-125881892D02*
X134345629Y-125942368D01*
X134345629Y-125942368D02*
X134103724Y-125942368D01*
X134103724Y-125942368D02*
X133982771Y-125881892D01*
X133982771Y-125881892D02*
X133922295Y-125760939D01*
X133922295Y-125760939D02*
X133922295Y-125277130D01*
X133922295Y-125277130D02*
X133982771Y-125156177D01*
X133982771Y-125156177D02*
X134103724Y-125095701D01*
X134103724Y-125095701D02*
X134345629Y-125095701D01*
X134345629Y-125095701D02*
X134466581Y-125156177D01*
X134466581Y-125156177D02*
X134527057Y-125277130D01*
X134527057Y-125277130D02*
X134527057Y-125398082D01*
X134527057Y-125398082D02*
X133922295Y-125519034D01*
X135071342Y-125942368D02*
X135071342Y-125095701D01*
X135071342Y-125337606D02*
X135131819Y-125216653D01*
X135131819Y-125216653D02*
X135192295Y-125156177D01*
X135192295Y-125156177D02*
X135313247Y-125095701D01*
X135313247Y-125095701D02*
X135434200Y-125095701D01*
X132041485Y-86342558D02*
X133009105Y-86342558D01*
X132525295Y-86826368D02*
X132525295Y-85858749D01*
X128806009Y-99084892D02*
X128987438Y-99145368D01*
X128987438Y-99145368D02*
X129289819Y-99145368D01*
X129289819Y-99145368D02*
X129410771Y-99084892D01*
X129410771Y-99084892D02*
X129471247Y-99024415D01*
X129471247Y-99024415D02*
X129531724Y-98903463D01*
X129531724Y-98903463D02*
X129531724Y-98782511D01*
X129531724Y-98782511D02*
X129471247Y-98661558D01*
X129471247Y-98661558D02*
X129410771Y-98601082D01*
X129410771Y-98601082D02*
X129289819Y-98540606D01*
X129289819Y-98540606D02*
X129047914Y-98480130D01*
X129047914Y-98480130D02*
X128926962Y-98419653D01*
X128926962Y-98419653D02*
X128866485Y-98359177D01*
X128866485Y-98359177D02*
X128806009Y-98238225D01*
X128806009Y-98238225D02*
X128806009Y-98117272D01*
X128806009Y-98117272D02*
X128866485Y-97996320D01*
X128866485Y-97996320D02*
X128926962Y-97935844D01*
X128926962Y-97935844D02*
X129047914Y-97875368D01*
X129047914Y-97875368D02*
X129350295Y-97875368D01*
X129350295Y-97875368D02*
X129531724Y-97935844D01*
X130076009Y-99145368D02*
X130076009Y-98298701D01*
X130076009Y-97875368D02*
X130015533Y-97935844D01*
X130015533Y-97935844D02*
X130076009Y-97996320D01*
X130076009Y-97996320D02*
X130136486Y-97935844D01*
X130136486Y-97935844D02*
X130076009Y-97875368D01*
X130076009Y-97875368D02*
X130076009Y-97996320D01*
X131225057Y-98298701D02*
X131225057Y-99326796D01*
X131225057Y-99326796D02*
X131164581Y-99447749D01*
X131164581Y-99447749D02*
X131104105Y-99508225D01*
X131104105Y-99508225D02*
X130983152Y-99568701D01*
X130983152Y-99568701D02*
X130801724Y-99568701D01*
X130801724Y-99568701D02*
X130680771Y-99508225D01*
X131225057Y-99084892D02*
X131104105Y-99145368D01*
X131104105Y-99145368D02*
X130862200Y-99145368D01*
X130862200Y-99145368D02*
X130741248Y-99084892D01*
X130741248Y-99084892D02*
X130680771Y-99024415D01*
X130680771Y-99024415D02*
X130620295Y-98903463D01*
X130620295Y-98903463D02*
X130620295Y-98540606D01*
X130620295Y-98540606D02*
X130680771Y-98419653D01*
X130680771Y-98419653D02*
X130741248Y-98359177D01*
X130741248Y-98359177D02*
X130862200Y-98298701D01*
X130862200Y-98298701D02*
X131104105Y-98298701D01*
X131104105Y-98298701D02*
X131225057Y-98359177D01*
X131829819Y-98298701D02*
X131829819Y-99145368D01*
X131829819Y-98419653D02*
X131890296Y-98359177D01*
X131890296Y-98359177D02*
X132011248Y-98298701D01*
X132011248Y-98298701D02*
X132192677Y-98298701D01*
X132192677Y-98298701D02*
X132313629Y-98359177D01*
X132313629Y-98359177D02*
X132374105Y-98480130D01*
X132374105Y-98480130D02*
X132374105Y-99145368D01*
X133523153Y-99145368D02*
X133523153Y-98480130D01*
X133523153Y-98480130D02*
X133462677Y-98359177D01*
X133462677Y-98359177D02*
X133341725Y-98298701D01*
X133341725Y-98298701D02*
X133099820Y-98298701D01*
X133099820Y-98298701D02*
X132978867Y-98359177D01*
X133523153Y-99084892D02*
X133402201Y-99145368D01*
X133402201Y-99145368D02*
X133099820Y-99145368D01*
X133099820Y-99145368D02*
X132978867Y-99084892D01*
X132978867Y-99084892D02*
X132918391Y-98963939D01*
X132918391Y-98963939D02*
X132918391Y-98842987D01*
X132918391Y-98842987D02*
X132978867Y-98722034D01*
X132978867Y-98722034D02*
X133099820Y-98661558D01*
X133099820Y-98661558D02*
X133402201Y-98661558D01*
X133402201Y-98661558D02*
X133523153Y-98601082D01*
X134309344Y-99145368D02*
X134188392Y-99084892D01*
X134188392Y-99084892D02*
X134127915Y-98963939D01*
X134127915Y-98963939D02*
X134127915Y-97875368D01*
X152935818Y-91887318D02*
X152935818Y-90617318D01*
X152935818Y-90617318D02*
X153238199Y-90617318D01*
X153238199Y-90617318D02*
X153419628Y-90677794D01*
X153419628Y-90677794D02*
X153540580Y-90798746D01*
X153540580Y-90798746D02*
X153601057Y-90919699D01*
X153601057Y-90919699D02*
X153661533Y-91161603D01*
X153661533Y-91161603D02*
X153661533Y-91343032D01*
X153661533Y-91343032D02*
X153601057Y-91584937D01*
X153601057Y-91584937D02*
X153540580Y-91705889D01*
X153540580Y-91705889D02*
X153419628Y-91826842D01*
X153419628Y-91826842D02*
X153238199Y-91887318D01*
X153238199Y-91887318D02*
X152935818Y-91887318D01*
X154871057Y-91887318D02*
X154145342Y-91887318D01*
X154508199Y-91887318D02*
X154508199Y-90617318D01*
X154508199Y-90617318D02*
X154387247Y-90798746D01*
X154387247Y-90798746D02*
X154266295Y-90919699D01*
X154266295Y-90919699D02*
X154145342Y-90980175D01*
X166326780Y-93605918D02*
X166326780Y-94634013D01*
X166326780Y-94634013D02*
X166387257Y-94754965D01*
X166387257Y-94754965D02*
X166447733Y-94815442D01*
X166447733Y-94815442D02*
X166568685Y-94875918D01*
X166568685Y-94875918D02*
X166810590Y-94875918D01*
X166810590Y-94875918D02*
X166931542Y-94815442D01*
X166931542Y-94815442D02*
X166992019Y-94754965D01*
X166992019Y-94754965D02*
X167052495Y-94634013D01*
X167052495Y-94634013D02*
X167052495Y-93605918D01*
X168322495Y-94875918D02*
X167596780Y-94875918D01*
X167959637Y-94875918D02*
X167959637Y-93605918D01*
X167959637Y-93605918D02*
X167838685Y-93787346D01*
X167838685Y-93787346D02*
X167717733Y-93908299D01*
X167717733Y-93908299D02*
X167596780Y-93968775D01*
X149902333Y-95265518D02*
X149478999Y-94660756D01*
X149176618Y-95265518D02*
X149176618Y-93995518D01*
X149176618Y-93995518D02*
X149660428Y-93995518D01*
X149660428Y-93995518D02*
X149781380Y-94055994D01*
X149781380Y-94055994D02*
X149841857Y-94116470D01*
X149841857Y-94116470D02*
X149902333Y-94237422D01*
X149902333Y-94237422D02*
X149902333Y-94418851D01*
X149902333Y-94418851D02*
X149841857Y-94539803D01*
X149841857Y-94539803D02*
X149781380Y-94600280D01*
X149781380Y-94600280D02*
X149660428Y-94660756D01*
X149660428Y-94660756D02*
X149176618Y-94660756D01*
X151111857Y-95265518D02*
X150386142Y-95265518D01*
X150748999Y-95265518D02*
X150748999Y-93995518D01*
X150748999Y-93995518D02*
X150628047Y-94176946D01*
X150628047Y-94176946D02*
X150507095Y-94297899D01*
X150507095Y-94297899D02*
X150386142Y-94358375D01*
X149851533Y-103647518D02*
X149428199Y-103042756D01*
X149125818Y-103647518D02*
X149125818Y-102377518D01*
X149125818Y-102377518D02*
X149609628Y-102377518D01*
X149609628Y-102377518D02*
X149730580Y-102437994D01*
X149730580Y-102437994D02*
X149791057Y-102498470D01*
X149791057Y-102498470D02*
X149851533Y-102619422D01*
X149851533Y-102619422D02*
X149851533Y-102800851D01*
X149851533Y-102800851D02*
X149791057Y-102921803D01*
X149791057Y-102921803D02*
X149730580Y-102982280D01*
X149730580Y-102982280D02*
X149609628Y-103042756D01*
X149609628Y-103042756D02*
X149125818Y-103042756D01*
X150274866Y-102377518D02*
X151061057Y-102377518D01*
X151061057Y-102377518D02*
X150637723Y-102861327D01*
X150637723Y-102861327D02*
X150819152Y-102861327D01*
X150819152Y-102861327D02*
X150940104Y-102921803D01*
X150940104Y-102921803D02*
X151000580Y-102982280D01*
X151000580Y-102982280D02*
X151061057Y-103103232D01*
X151061057Y-103103232D02*
X151061057Y-103405613D01*
X151061057Y-103405613D02*
X151000580Y-103526565D01*
X151000580Y-103526565D02*
X150940104Y-103587042D01*
X150940104Y-103587042D02*
X150819152Y-103647518D01*
X150819152Y-103647518D02*
X150456295Y-103647518D01*
X150456295Y-103647518D02*
X150335342Y-103587042D01*
X150335342Y-103587042D02*
X150274866Y-103526565D01*
X132545667Y-119954318D02*
X132545667Y-120861461D01*
X132545667Y-120861461D02*
X132485190Y-121042889D01*
X132485190Y-121042889D02*
X132364238Y-121163842D01*
X132364238Y-121163842D02*
X132182809Y-121224318D01*
X132182809Y-121224318D02*
X132061857Y-121224318D01*
X133029476Y-119954318D02*
X133815667Y-119954318D01*
X133815667Y-119954318D02*
X133392333Y-120438127D01*
X133392333Y-120438127D02*
X133573762Y-120438127D01*
X133573762Y-120438127D02*
X133694714Y-120498603D01*
X133694714Y-120498603D02*
X133755190Y-120559080D01*
X133755190Y-120559080D02*
X133815667Y-120680032D01*
X133815667Y-120680032D02*
X133815667Y-120982413D01*
X133815667Y-120982413D02*
X133755190Y-121103365D01*
X133755190Y-121103365D02*
X133694714Y-121163842D01*
X133694714Y-121163842D02*
X133573762Y-121224318D01*
X133573762Y-121224318D02*
X133210905Y-121224318D01*
X133210905Y-121224318D02*
X133089952Y-121163842D01*
X133089952Y-121163842D02*
X133029476Y-121103365D01*
X180382333Y-122246365D02*
X180321857Y-122306842D01*
X180321857Y-122306842D02*
X180140428Y-122367318D01*
X180140428Y-122367318D02*
X180019476Y-122367318D01*
X180019476Y-122367318D02*
X179838047Y-122306842D01*
X179838047Y-122306842D02*
X179717095Y-122185889D01*
X179717095Y-122185889D02*
X179656618Y-122064937D01*
X179656618Y-122064937D02*
X179596142Y-121823032D01*
X179596142Y-121823032D02*
X179596142Y-121641603D01*
X179596142Y-121641603D02*
X179656618Y-121399699D01*
X179656618Y-121399699D02*
X179717095Y-121278746D01*
X179717095Y-121278746D02*
X179838047Y-121157794D01*
X179838047Y-121157794D02*
X180019476Y-121097318D01*
X180019476Y-121097318D02*
X180140428Y-121097318D01*
X180140428Y-121097318D02*
X180321857Y-121157794D01*
X180321857Y-121157794D02*
X180382333Y-121218270D01*
X181531380Y-121097318D02*
X180926618Y-121097318D01*
X180926618Y-121097318D02*
X180866142Y-121702080D01*
X180866142Y-121702080D02*
X180926618Y-121641603D01*
X180926618Y-121641603D02*
X181047571Y-121581127D01*
X181047571Y-121581127D02*
X181349952Y-121581127D01*
X181349952Y-121581127D02*
X181470904Y-121641603D01*
X181470904Y-121641603D02*
X181531380Y-121702080D01*
X181531380Y-121702080D02*
X181591857Y-121823032D01*
X181591857Y-121823032D02*
X181591857Y-122125413D01*
X181591857Y-122125413D02*
X181531380Y-122246365D01*
X181531380Y-122246365D02*
X181470904Y-122306842D01*
X181470904Y-122306842D02*
X181349952Y-122367318D01*
X181349952Y-122367318D02*
X181047571Y-122367318D01*
X181047571Y-122367318D02*
X180926618Y-122306842D01*
X180926618Y-122306842D02*
X180866142Y-122246365D01*
X161332333Y-116404365D02*
X161271857Y-116464842D01*
X161271857Y-116464842D02*
X161090428Y-116525318D01*
X161090428Y-116525318D02*
X160969476Y-116525318D01*
X160969476Y-116525318D02*
X160788047Y-116464842D01*
X160788047Y-116464842D02*
X160667095Y-116343889D01*
X160667095Y-116343889D02*
X160606618Y-116222937D01*
X160606618Y-116222937D02*
X160546142Y-115981032D01*
X160546142Y-115981032D02*
X160546142Y-115799603D01*
X160546142Y-115799603D02*
X160606618Y-115557699D01*
X160606618Y-115557699D02*
X160667095Y-115436746D01*
X160667095Y-115436746D02*
X160788047Y-115315794D01*
X160788047Y-115315794D02*
X160969476Y-115255318D01*
X160969476Y-115255318D02*
X161090428Y-115255318D01*
X161090428Y-115255318D02*
X161271857Y-115315794D01*
X161271857Y-115315794D02*
X161332333Y-115376270D01*
X162420904Y-115678651D02*
X162420904Y-116525318D01*
X162118523Y-115194842D02*
X161816142Y-116101984D01*
X161816142Y-116101984D02*
X162602333Y-116101984D01*
X161459333Y-110435365D02*
X161398857Y-110495842D01*
X161398857Y-110495842D02*
X161217428Y-110556318D01*
X161217428Y-110556318D02*
X161096476Y-110556318D01*
X161096476Y-110556318D02*
X160915047Y-110495842D01*
X160915047Y-110495842D02*
X160794095Y-110374889D01*
X160794095Y-110374889D02*
X160733618Y-110253937D01*
X160733618Y-110253937D02*
X160673142Y-110012032D01*
X160673142Y-110012032D02*
X160673142Y-109830603D01*
X160673142Y-109830603D02*
X160733618Y-109588699D01*
X160733618Y-109588699D02*
X160794095Y-109467746D01*
X160794095Y-109467746D02*
X160915047Y-109346794D01*
X160915047Y-109346794D02*
X161096476Y-109286318D01*
X161096476Y-109286318D02*
X161217428Y-109286318D01*
X161217428Y-109286318D02*
X161398857Y-109346794D01*
X161398857Y-109346794D02*
X161459333Y-109407270D01*
X161882666Y-109286318D02*
X162729333Y-109286318D01*
X162729333Y-109286318D02*
X162185047Y-110556318D01*
X132418667Y-88712318D02*
X132418667Y-89619461D01*
X132418667Y-89619461D02*
X132358190Y-89800889D01*
X132358190Y-89800889D02*
X132237238Y-89921842D01*
X132237238Y-89921842D02*
X132055809Y-89982318D01*
X132055809Y-89982318D02*
X131934857Y-89982318D01*
X132962952Y-88833270D02*
X133023428Y-88772794D01*
X133023428Y-88772794D02*
X133144381Y-88712318D01*
X133144381Y-88712318D02*
X133446762Y-88712318D01*
X133446762Y-88712318D02*
X133567714Y-88772794D01*
X133567714Y-88772794D02*
X133628190Y-88833270D01*
X133628190Y-88833270D02*
X133688667Y-88954222D01*
X133688667Y-88954222D02*
X133688667Y-89075175D01*
X133688667Y-89075175D02*
X133628190Y-89256603D01*
X133628190Y-89256603D02*
X132902476Y-89982318D01*
X132902476Y-89982318D02*
X133688667Y-89982318D01*
X137629867Y-98415118D02*
X137629867Y-99322261D01*
X137629867Y-99322261D02*
X137569390Y-99503689D01*
X137569390Y-99503689D02*
X137448438Y-99624642D01*
X137448438Y-99624642D02*
X137267009Y-99685118D01*
X137267009Y-99685118D02*
X137146057Y-99685118D01*
X138899867Y-99685118D02*
X138174152Y-99685118D01*
X138537009Y-99685118D02*
X138537009Y-98415118D01*
X138537009Y-98415118D02*
X138416057Y-98596546D01*
X138416057Y-98596546D02*
X138295105Y-98717499D01*
X138295105Y-98717499D02*
X138174152Y-98777975D01*
X181017333Y-95957365D02*
X180956857Y-96017842D01*
X180956857Y-96017842D02*
X180775428Y-96078318D01*
X180775428Y-96078318D02*
X180654476Y-96078318D01*
X180654476Y-96078318D02*
X180473047Y-96017842D01*
X180473047Y-96017842D02*
X180352095Y-95896889D01*
X180352095Y-95896889D02*
X180291618Y-95775937D01*
X180291618Y-95775937D02*
X180231142Y-95534032D01*
X180231142Y-95534032D02*
X180231142Y-95352603D01*
X180231142Y-95352603D02*
X180291618Y-95110699D01*
X180291618Y-95110699D02*
X180352095Y-94989746D01*
X180352095Y-94989746D02*
X180473047Y-94868794D01*
X180473047Y-94868794D02*
X180654476Y-94808318D01*
X180654476Y-94808318D02*
X180775428Y-94808318D01*
X180775428Y-94808318D02*
X180956857Y-94868794D01*
X180956857Y-94868794D02*
X181017333Y-94929270D01*
X181501142Y-94929270D02*
X181561618Y-94868794D01*
X181561618Y-94868794D02*
X181682571Y-94808318D01*
X181682571Y-94808318D02*
X181984952Y-94808318D01*
X181984952Y-94808318D02*
X182105904Y-94868794D01*
X182105904Y-94868794D02*
X182166380Y-94929270D01*
X182166380Y-94929270D02*
X182226857Y-95050222D01*
X182226857Y-95050222D02*
X182226857Y-95171175D01*
X182226857Y-95171175D02*
X182166380Y-95352603D01*
X182166380Y-95352603D02*
X181440666Y-96078318D01*
X181440666Y-96078318D02*
X182226857Y-96078318D01*
X149851533Y-99227918D02*
X149428199Y-98623156D01*
X149125818Y-99227918D02*
X149125818Y-97957918D01*
X149125818Y-97957918D02*
X149609628Y-97957918D01*
X149609628Y-97957918D02*
X149730580Y-98018394D01*
X149730580Y-98018394D02*
X149791057Y-98078870D01*
X149791057Y-98078870D02*
X149851533Y-98199822D01*
X149851533Y-98199822D02*
X149851533Y-98381251D01*
X149851533Y-98381251D02*
X149791057Y-98502203D01*
X149791057Y-98502203D02*
X149730580Y-98562680D01*
X149730580Y-98562680D02*
X149609628Y-98623156D01*
X149609628Y-98623156D02*
X149125818Y-98623156D01*
X150335342Y-98078870D02*
X150395818Y-98018394D01*
X150395818Y-98018394D02*
X150516771Y-97957918D01*
X150516771Y-97957918D02*
X150819152Y-97957918D01*
X150819152Y-97957918D02*
X150940104Y-98018394D01*
X150940104Y-98018394D02*
X151000580Y-98078870D01*
X151000580Y-98078870D02*
X151061057Y-98199822D01*
X151061057Y-98199822D02*
X151061057Y-98320775D01*
X151061057Y-98320775D02*
X151000580Y-98502203D01*
X151000580Y-98502203D02*
X150274866Y-99227918D01*
X150274866Y-99227918D02*
X151061057Y-99227918D01*
X152148333Y-125702365D02*
X152087857Y-125762842D01*
X152087857Y-125762842D02*
X151906428Y-125823318D01*
X151906428Y-125823318D02*
X151785476Y-125823318D01*
X151785476Y-125823318D02*
X151604047Y-125762842D01*
X151604047Y-125762842D02*
X151483095Y-125641889D01*
X151483095Y-125641889D02*
X151422618Y-125520937D01*
X151422618Y-125520937D02*
X151362142Y-125279032D01*
X151362142Y-125279032D02*
X151362142Y-125097603D01*
X151362142Y-125097603D02*
X151422618Y-124855699D01*
X151422618Y-124855699D02*
X151483095Y-124734746D01*
X151483095Y-124734746D02*
X151604047Y-124613794D01*
X151604047Y-124613794D02*
X151785476Y-124553318D01*
X151785476Y-124553318D02*
X151906428Y-124553318D01*
X151906428Y-124553318D02*
X152087857Y-124613794D01*
X152087857Y-124613794D02*
X152148333Y-124674270D01*
X152571666Y-124553318D02*
X153357857Y-124553318D01*
X153357857Y-124553318D02*
X152934523Y-125037127D01*
X152934523Y-125037127D02*
X153115952Y-125037127D01*
X153115952Y-125037127D02*
X153236904Y-125097603D01*
X153236904Y-125097603D02*
X153297380Y-125158080D01*
X153297380Y-125158080D02*
X153357857Y-125279032D01*
X153357857Y-125279032D02*
X153357857Y-125581413D01*
X153357857Y-125581413D02*
X153297380Y-125702365D01*
X153297380Y-125702365D02*
X153236904Y-125762842D01*
X153236904Y-125762842D02*
X153115952Y-125823318D01*
X153115952Y-125823318D02*
X152753095Y-125823318D01*
X152753095Y-125823318D02*
X152632142Y-125762842D01*
X152632142Y-125762842D02*
X152571666Y-125702365D01*
X171307533Y-84493765D02*
X171247057Y-84554242D01*
X171247057Y-84554242D02*
X171065628Y-84614718D01*
X171065628Y-84614718D02*
X170944676Y-84614718D01*
X170944676Y-84614718D02*
X170763247Y-84554242D01*
X170763247Y-84554242D02*
X170642295Y-84433289D01*
X170642295Y-84433289D02*
X170581818Y-84312337D01*
X170581818Y-84312337D02*
X170521342Y-84070432D01*
X170521342Y-84070432D02*
X170521342Y-83889003D01*
X170521342Y-83889003D02*
X170581818Y-83647099D01*
X170581818Y-83647099D02*
X170642295Y-83526146D01*
X170642295Y-83526146D02*
X170763247Y-83405194D01*
X170763247Y-83405194D02*
X170944676Y-83344718D01*
X170944676Y-83344718D02*
X171065628Y-83344718D01*
X171065628Y-83344718D02*
X171247057Y-83405194D01*
X171247057Y-83405194D02*
X171307533Y-83465670D01*
X172396104Y-83344718D02*
X172154199Y-83344718D01*
X172154199Y-83344718D02*
X172033247Y-83405194D01*
X172033247Y-83405194D02*
X171972771Y-83465670D01*
X171972771Y-83465670D02*
X171851818Y-83647099D01*
X171851818Y-83647099D02*
X171791342Y-83889003D01*
X171791342Y-83889003D02*
X171791342Y-84372813D01*
X171791342Y-84372813D02*
X171851818Y-84493765D01*
X171851818Y-84493765D02*
X171912295Y-84554242D01*
X171912295Y-84554242D02*
X172033247Y-84614718D01*
X172033247Y-84614718D02*
X172275152Y-84614718D01*
X172275152Y-84614718D02*
X172396104Y-84554242D01*
X172396104Y-84554242D02*
X172456580Y-84493765D01*
X172456580Y-84493765D02*
X172517057Y-84372813D01*
X172517057Y-84372813D02*
X172517057Y-84070432D01*
X172517057Y-84070432D02*
X172456580Y-83949480D01*
X172456580Y-83949480D02*
X172396104Y-83889003D01*
X172396104Y-83889003D02*
X172275152Y-83828527D01*
X172275152Y-83828527D02*
X172033247Y-83828527D01*
X172033247Y-83828527D02*
X171912295Y-83889003D01*
X171912295Y-83889003D02*
X171851818Y-83949480D01*
X171851818Y-83949480D02*
X171791342Y-84070432D01*
X181906333Y-108022365D02*
X181845857Y-108082842D01*
X181845857Y-108082842D02*
X181664428Y-108143318D01*
X181664428Y-108143318D02*
X181543476Y-108143318D01*
X181543476Y-108143318D02*
X181362047Y-108082842D01*
X181362047Y-108082842D02*
X181241095Y-107961889D01*
X181241095Y-107961889D02*
X181180618Y-107840937D01*
X181180618Y-107840937D02*
X181120142Y-107599032D01*
X181120142Y-107599032D02*
X181120142Y-107417603D01*
X181120142Y-107417603D02*
X181180618Y-107175699D01*
X181180618Y-107175699D02*
X181241095Y-107054746D01*
X181241095Y-107054746D02*
X181362047Y-106933794D01*
X181362047Y-106933794D02*
X181543476Y-106873318D01*
X181543476Y-106873318D02*
X181664428Y-106873318D01*
X181664428Y-106873318D02*
X181845857Y-106933794D01*
X181845857Y-106933794D02*
X181906333Y-106994270D01*
X183115857Y-108143318D02*
X182390142Y-108143318D01*
X182752999Y-108143318D02*
X182752999Y-106873318D01*
X182752999Y-106873318D02*
X182632047Y-107054746D01*
X182632047Y-107054746D02*
X182511095Y-107175699D01*
X182511095Y-107175699D02*
X182390142Y-107236175D01*
D11*
%TO.C,D1*%
X157613200Y-88493600D02*
X156593200Y-88493600D01*
X156593200Y-89963600D02*
X156593200Y-87023600D01*
X156593200Y-87023600D02*
X151153200Y-87023600D01*
X155813200Y-89963600D02*
X155813200Y-87023600D01*
X155693200Y-89963600D02*
X155693200Y-87023600D01*
X155573200Y-89963600D02*
X155573200Y-87023600D01*
X151153200Y-89963600D02*
X156593200Y-89963600D01*
X151153200Y-87023600D02*
X151153200Y-89963600D01*
X150133200Y-88493600D02*
X151153200Y-88493600D01*
%TO.C,U1*%
X164644400Y-95301600D02*
X164644400Y-105581600D01*
X164644400Y-105581600D02*
X169944400Y-105581600D01*
X166294400Y-95301600D02*
X164644400Y-95301600D01*
X169944400Y-95301600D02*
X168294400Y-95301600D01*
X169944400Y-105581600D02*
X169944400Y-95301600D01*
X166294400Y-95301600D02*
G75*
G03*
X168294400Y-95301600I1000000J0D01*
G01*
%TO.C,R1*%
X152940000Y-93284400D02*
X159480000Y-93284400D01*
X152940000Y-93614400D02*
X152940000Y-93284400D01*
X152940000Y-95694400D02*
X152940000Y-96024400D01*
X152940000Y-96024400D02*
X159480000Y-96024400D01*
X159480000Y-93284400D02*
X159480000Y-93614400D01*
X159480000Y-96024400D02*
X159480000Y-95694400D01*
%TO.C,R3*%
X159421000Y-104472400D02*
X152881000Y-104472400D01*
X159421000Y-104142400D02*
X159421000Y-104472400D01*
X159421000Y-102062400D02*
X159421000Y-101732400D01*
X159421000Y-101732400D02*
X152881000Y-101732400D01*
X152881000Y-104472400D02*
X152881000Y-104142400D01*
X152881000Y-101732400D02*
X152881000Y-102062400D01*
%TO.C,J3*%
X142993000Y-117545000D02*
X142993000Y-116705000D01*
X142993000Y-116705000D02*
X142393000Y-116705000D01*
X142753000Y-124365000D02*
X142753000Y-116945000D01*
X142753000Y-124365000D02*
X135123000Y-124365000D01*
X142753000Y-122305000D02*
X135123000Y-122305000D01*
X142753000Y-118904000D02*
X135123000Y-118904000D01*
X142753000Y-117605000D02*
X135123000Y-117605000D01*
X142753000Y-116945000D02*
X135123000Y-116945000D01*
X141843000Y-124205000D02*
X141843000Y-123705000D01*
X141843000Y-124205000D02*
X139843000Y-124205000D01*
X141843000Y-123705000D02*
X139843000Y-123705000D01*
X141789000Y-119834000D02*
X141928000Y-119695000D01*
X141614000Y-119660000D02*
X141754000Y-119520000D01*
X139932000Y-121690000D02*
X140072000Y-121550000D01*
X139843000Y-124205000D02*
X139843000Y-123705000D01*
X139758000Y-121515000D02*
X139898000Y-121376000D01*
X138033000Y-124205000D02*
X138033000Y-123705000D01*
X138033000Y-124205000D02*
X136033000Y-124205000D01*
X138033000Y-123705000D02*
X136033000Y-123705000D01*
X137818000Y-119994000D02*
X138117000Y-119695000D01*
X137643000Y-119819000D02*
X137943000Y-119520000D01*
X136122000Y-121690000D02*
X136422000Y-121391000D01*
X136033000Y-124205000D02*
X136033000Y-123705000D01*
X135948000Y-121515000D02*
X136247000Y-121216000D01*
X135123000Y-124365000D02*
X135123000Y-116945000D01*
X142273000Y-120605000D02*
G75*
G03*
X142273000Y-120605000I-1430000J0D01*
G01*
X138463000Y-120605000D02*
G75*
G03*
X138463000Y-120605000I-1430000J0D01*
G01*
%TO.C,C5*%
X178411000Y-124913000D02*
X178411000Y-118673000D01*
X178411000Y-124913000D02*
X160171000Y-124913000D01*
X178411000Y-118673000D02*
X160171000Y-118673000D01*
X160171000Y-124913000D02*
X160171000Y-118673000D01*
%TO.C,C4*%
X163666000Y-114581000D02*
X163666000Y-117321000D01*
X163666000Y-114581000D02*
X171106000Y-114581000D01*
X163666000Y-117321000D02*
X171106000Y-117321000D01*
X171106000Y-114581000D02*
X171106000Y-117321000D01*
%TO.C,C7*%
X163539000Y-107739000D02*
X163539000Y-112479000D01*
X163539000Y-107739000D02*
X170979000Y-107739000D01*
X163539000Y-112479000D02*
X170979000Y-112479000D01*
X170979000Y-107739000D02*
X170979000Y-112479000D01*
%TO.C,J2*%
X134730600Y-92513000D02*
X134730600Y-93353000D01*
X134730600Y-93353000D02*
X135330600Y-93353000D01*
X134970600Y-85693000D02*
X134970600Y-93113000D01*
X134970600Y-85693000D02*
X142600600Y-85693000D01*
X134970600Y-87753000D02*
X142600600Y-87753000D01*
X134970600Y-91154000D02*
X142600600Y-91154000D01*
X134970600Y-92453000D02*
X142600600Y-92453000D01*
X134970600Y-93113000D02*
X142600600Y-93113000D01*
X135880600Y-85853000D02*
X135880600Y-86353000D01*
X135880600Y-85853000D02*
X137880600Y-85853000D01*
X135880600Y-86353000D02*
X137880600Y-86353000D01*
X135934600Y-90224000D02*
X135795600Y-90363000D01*
X136109600Y-90398000D02*
X135969600Y-90538000D01*
X137791600Y-88368000D02*
X137651600Y-88508000D01*
X137880600Y-85853000D02*
X137880600Y-86353000D01*
X137965600Y-88543000D02*
X137825600Y-88682000D01*
X139690600Y-85853000D02*
X139690600Y-86353000D01*
X139690600Y-85853000D02*
X141690600Y-85853000D01*
X139690600Y-86353000D02*
X141690600Y-86353000D01*
X139905600Y-90064000D02*
X139606600Y-90363000D01*
X140080600Y-90239000D02*
X139780600Y-90538000D01*
X141601600Y-88368000D02*
X141301600Y-88667000D01*
X141690600Y-85853000D02*
X141690600Y-86353000D01*
X141775600Y-88543000D02*
X141476600Y-88842000D01*
X142600600Y-85693000D02*
X142600600Y-93113000D01*
X138310600Y-89453000D02*
G75*
G03*
X138310600Y-89453000I-1430000J0D01*
G01*
X142120600Y-89453000D02*
G75*
G03*
X142120600Y-89453000I-1430000J0D01*
G01*
%TO.C,J1*%
X131466400Y-108764000D02*
X131466400Y-108264000D01*
X132666400Y-108764000D02*
X132666400Y-110764000D01*
X132666400Y-108764000D02*
X131466400Y-108764000D01*
X135266400Y-108764000D02*
X135266400Y-110764000D01*
X141766400Y-108764000D02*
X135266400Y-108764000D01*
X146166400Y-108764000D02*
X144966400Y-108764000D01*
X128966400Y-108264000D02*
X128966400Y-103064000D01*
X131466400Y-108264000D02*
X128966400Y-108264000D01*
X128966400Y-103064000D02*
X131466400Y-103064000D01*
X131466400Y-103064000D02*
X131466400Y-102564000D01*
X131466400Y-102564000D02*
X134666400Y-102564000D01*
X137266400Y-102564000D02*
X146166400Y-102564000D01*
X146166400Y-102564000D02*
X146166400Y-108764000D01*
%TO.C,C2*%
X178360000Y-93134600D02*
X178360000Y-93534600D01*
X178560000Y-93334600D02*
X178160000Y-93334600D01*
X179245000Y-95404401D02*
X178005000Y-95404401D01*
X176325000Y-95404401D02*
X175085000Y-95404401D01*
X179245000Y-95444401D02*
X178005000Y-95444401D01*
X176325000Y-95444401D02*
X175085000Y-95444401D01*
X179244000Y-95484401D02*
X178005000Y-95484401D01*
X176325000Y-95484401D02*
X175086000Y-95484401D01*
X179242000Y-95524401D02*
X178005000Y-95524401D01*
X176325000Y-95524401D02*
X175088000Y-95524401D01*
X179239000Y-95564401D02*
X178005000Y-95564401D01*
X176325000Y-95564401D02*
X175091000Y-95564401D01*
X179236000Y-95604401D02*
X178005000Y-95604401D01*
X176325000Y-95604401D02*
X175094000Y-95604401D01*
X179232000Y-95644401D02*
X178005000Y-95644401D01*
X176325000Y-95644401D02*
X175098000Y-95644401D01*
X179227000Y-95684401D02*
X178005000Y-95684401D01*
X176325000Y-95684401D02*
X175103000Y-95684401D01*
X179221000Y-95724401D02*
X178005000Y-95724401D01*
X176325000Y-95724401D02*
X175109000Y-95724401D01*
X179215000Y-95764401D02*
X178005000Y-95764401D01*
X176325000Y-95764401D02*
X175115000Y-95764401D01*
X179207000Y-95804401D02*
X178005000Y-95804401D01*
X176325000Y-95804401D02*
X175123000Y-95804401D01*
X179199000Y-95844401D02*
X178005000Y-95844401D01*
X176325000Y-95844401D02*
X175131000Y-95844401D01*
X179190000Y-95884401D02*
X178005000Y-95884401D01*
X176325000Y-95884401D02*
X175140000Y-95884401D01*
X179181000Y-95924401D02*
X178005000Y-95924401D01*
X176325000Y-95924401D02*
X175149000Y-95924401D01*
X179170000Y-95964401D02*
X178005000Y-95964401D01*
X176325000Y-95964401D02*
X175160000Y-95964401D01*
X179159000Y-96004401D02*
X178005000Y-96004401D01*
X176325000Y-96004401D02*
X175171000Y-96004401D01*
X179147000Y-96044401D02*
X178005000Y-96044401D01*
X176325000Y-96044401D02*
X175183000Y-96044401D01*
X179133000Y-96084401D02*
X178005000Y-96084401D01*
X176325000Y-96084401D02*
X175197000Y-96084401D01*
X179119000Y-96125401D02*
X178005000Y-96125401D01*
X176325000Y-96125401D02*
X175211000Y-96125401D01*
X179105000Y-96165401D02*
X178005000Y-96165401D01*
X176325000Y-96165401D02*
X175225000Y-96165401D01*
X179089000Y-96205401D02*
X178005000Y-96205401D01*
X176325000Y-96205401D02*
X175241000Y-96205401D01*
X179072000Y-96245401D02*
X178005000Y-96245401D01*
X176325000Y-96245401D02*
X175258000Y-96245401D01*
X179054000Y-96285401D02*
X178005000Y-96285401D01*
X176325000Y-96285401D02*
X175276000Y-96285401D01*
X179035000Y-96325401D02*
X178005000Y-96325401D01*
X176325000Y-96325401D02*
X175295000Y-96325401D01*
X179016000Y-96365401D02*
X178005000Y-96365401D01*
X176325000Y-96365401D02*
X175314000Y-96365401D01*
X178995000Y-96405401D02*
X178005000Y-96405401D01*
X176325000Y-96405401D02*
X175335000Y-96405401D01*
X178973000Y-96445401D02*
X178005000Y-96445401D01*
X176325000Y-96445401D02*
X175357000Y-96445401D01*
X178950000Y-96485401D02*
X178005000Y-96485401D01*
X176325000Y-96485401D02*
X175380000Y-96485401D01*
X178925000Y-96525401D02*
X178005000Y-96525401D01*
X176325000Y-96525401D02*
X175405000Y-96525401D01*
X178900000Y-96565401D02*
X178005000Y-96565401D01*
X176325000Y-96565401D02*
X175430000Y-96565401D01*
X178873000Y-96605401D02*
X178005000Y-96605401D01*
X176325000Y-96605401D02*
X175457000Y-96605401D01*
X178845000Y-96645401D02*
X178005000Y-96645401D01*
X176325000Y-96645401D02*
X175485000Y-96645401D01*
X178815000Y-96685401D02*
X178005000Y-96685401D01*
X176325000Y-96685401D02*
X175515000Y-96685401D01*
X178784000Y-96725401D02*
X178005000Y-96725401D01*
X176325000Y-96725401D02*
X175546000Y-96725401D01*
X178752000Y-96765401D02*
X178005000Y-96765401D01*
X176325000Y-96765401D02*
X175578000Y-96765401D01*
X178717000Y-96805401D02*
X178005000Y-96805401D01*
X176325000Y-96805401D02*
X175613000Y-96805401D01*
X178681000Y-96845401D02*
X178005000Y-96845401D01*
X176325000Y-96845401D02*
X175649000Y-96845401D01*
X178643000Y-96885401D02*
X178005000Y-96885401D01*
X176325000Y-96885401D02*
X175687000Y-96885401D01*
X178603000Y-96925401D02*
X178005000Y-96925401D01*
X176325000Y-96925401D02*
X175727000Y-96925401D01*
X178561000Y-96965401D02*
X178005000Y-96965401D01*
X176325000Y-96965401D02*
X175769000Y-96965401D01*
X178516000Y-97005401D02*
X175814000Y-97005401D01*
X178469000Y-97045401D02*
X175861000Y-97045401D01*
X178419000Y-97085401D02*
X175911000Y-97085401D01*
X178365000Y-97125401D02*
X175965000Y-97125401D01*
X178307000Y-97165401D02*
X176023000Y-97165401D01*
X178245000Y-97205401D02*
X176085000Y-97205401D01*
X178178000Y-97245401D02*
X176152000Y-97245401D01*
X178105000Y-97285401D02*
X176225000Y-97285401D01*
X178024000Y-97325401D02*
X176306000Y-97325401D01*
X177933000Y-97365401D02*
X176397000Y-97365401D01*
X177829000Y-97405401D02*
X176501000Y-97405401D01*
X177702000Y-97445401D02*
X176628000Y-97445401D01*
X177535000Y-97485401D02*
X176795000Y-97485401D01*
X179285000Y-95404401D02*
G75*
G03*
X179285000Y-95404401I-2120000J0D01*
G01*
%TO.C,R2*%
X152940000Y-97334400D02*
X159480000Y-97334400D01*
X152940000Y-97664400D02*
X152940000Y-97334400D01*
X152940000Y-99744400D02*
X152940000Y-100074400D01*
X152940000Y-100074400D02*
X159480000Y-100074400D01*
X159480000Y-97334400D02*
X159480000Y-97664400D01*
X159480000Y-100074400D02*
X159480000Y-99744400D01*
%TO.C,C3*%
X157839646Y-121874000D02*
X156839646Y-121874000D01*
X157339646Y-122374000D02*
X157339646Y-121374000D01*
X152360000Y-124079000D02*
X152360000Y-113919000D01*
X152320000Y-124079000D02*
X152320000Y-113919000D01*
X152280000Y-124079000D02*
X152280000Y-113919000D01*
X152240000Y-124078000D02*
X152240000Y-113920000D01*
X152200000Y-124077000D02*
X152200000Y-113921000D01*
X152160000Y-124076000D02*
X152160000Y-113922000D01*
X152120000Y-124074000D02*
X152120000Y-113924000D01*
X152080000Y-124072000D02*
X152080000Y-113926000D01*
X152040000Y-124069000D02*
X152040000Y-113929000D01*
X152000000Y-124067000D02*
X152000000Y-113931000D01*
X151960000Y-124064000D02*
X151960000Y-113934000D01*
X151920000Y-124061000D02*
X151920000Y-113937000D01*
X151880000Y-124057000D02*
X151880000Y-113941000D01*
X151840000Y-124053000D02*
X151840000Y-113945000D01*
X151800000Y-124049000D02*
X151800000Y-113949000D01*
X151760000Y-124044000D02*
X151760000Y-113954000D01*
X151720000Y-124039000D02*
X151720000Y-113959000D01*
X151680000Y-124034000D02*
X151680000Y-113964000D01*
X151639000Y-124029000D02*
X151639000Y-113969000D01*
X151599000Y-124023000D02*
X151599000Y-113975000D01*
X151559000Y-124017000D02*
X151559000Y-113981000D01*
X151519000Y-124010000D02*
X151519000Y-113988000D01*
X151479000Y-124003000D02*
X151479000Y-113995000D01*
X151439000Y-123996000D02*
X151439000Y-114002000D01*
X151399000Y-123989000D02*
X151399000Y-114009000D01*
X151359000Y-123981000D02*
X151359000Y-114017000D01*
X151319000Y-123973000D02*
X151319000Y-114025000D01*
X151279000Y-123964000D02*
X151279000Y-114034000D01*
X151239000Y-123955000D02*
X151239000Y-114043000D01*
X151199000Y-123946000D02*
X151199000Y-114052000D01*
X151159000Y-123937000D02*
X151159000Y-114061000D01*
X151119000Y-123927000D02*
X151119000Y-114071000D01*
X151079000Y-123917000D02*
X151079000Y-120240000D01*
X151079000Y-117758000D02*
X151079000Y-114081000D01*
X151039000Y-123906000D02*
X151039000Y-120240000D01*
X151039000Y-117758000D02*
X151039000Y-114092000D01*
X150999000Y-123896000D02*
X150999000Y-120240000D01*
X150999000Y-117758000D02*
X150999000Y-114102000D01*
X150959000Y-123884000D02*
X150959000Y-120240000D01*
X150959000Y-117758000D02*
X150959000Y-114114000D01*
X150919000Y-123873000D02*
X150919000Y-120240000D01*
X150919000Y-117758000D02*
X150919000Y-114125000D01*
X150879000Y-123861000D02*
X150879000Y-120240000D01*
X150879000Y-117758000D02*
X150879000Y-114137000D01*
X150839000Y-123849000D02*
X150839000Y-120240000D01*
X150839000Y-117758000D02*
X150839000Y-114149000D01*
X150799000Y-123836000D02*
X150799000Y-120240000D01*
X150799000Y-117758000D02*
X150799000Y-114162000D01*
X150759000Y-123823000D02*
X150759000Y-120240000D01*
X150759000Y-117758000D02*
X150759000Y-114175000D01*
X150719000Y-123810000D02*
X150719000Y-120240000D01*
X150719000Y-117758000D02*
X150719000Y-114188000D01*
X150679000Y-123796000D02*
X150679000Y-120240000D01*
X150679000Y-117758000D02*
X150679000Y-114202000D01*
X150639000Y-123782000D02*
X150639000Y-120240000D01*
X150639000Y-117758000D02*
X150639000Y-114216000D01*
X150599000Y-123767000D02*
X150599000Y-120240000D01*
X150599000Y-117758000D02*
X150599000Y-114231000D01*
X150559000Y-123753000D02*
X150559000Y-120240000D01*
X150559000Y-117758000D02*
X150559000Y-114245000D01*
X150519000Y-123737000D02*
X150519000Y-120240000D01*
X150519000Y-117758000D02*
X150519000Y-114261000D01*
X150479000Y-123722000D02*
X150479000Y-120240000D01*
X150479000Y-117758000D02*
X150479000Y-114276000D01*
X150439000Y-123706000D02*
X150439000Y-120240000D01*
X150439000Y-117758000D02*
X150439000Y-114292000D01*
X150399000Y-123689000D02*
X150399000Y-120240000D01*
X150399000Y-117758000D02*
X150399000Y-114309000D01*
X150359000Y-123673000D02*
X150359000Y-120240000D01*
X150359000Y-117758000D02*
X150359000Y-114325000D01*
X150319000Y-123656000D02*
X150319000Y-120240000D01*
X150319000Y-117758000D02*
X150319000Y-114342000D01*
X150279000Y-123638000D02*
X150279000Y-120240000D01*
X150279000Y-117758000D02*
X150279000Y-114360000D01*
X150239000Y-123620000D02*
X150239000Y-120240000D01*
X150239000Y-117758000D02*
X150239000Y-114378000D01*
X150199000Y-123602000D02*
X150199000Y-120240000D01*
X150199000Y-117758000D02*
X150199000Y-114396000D01*
X150159000Y-123583000D02*
X150159000Y-120240000D01*
X150159000Y-117758000D02*
X150159000Y-114415000D01*
X150119000Y-123563000D02*
X150119000Y-120240000D01*
X150119000Y-117758000D02*
X150119000Y-114435000D01*
X150079000Y-123544000D02*
X150079000Y-120240000D01*
X150079000Y-117758000D02*
X150079000Y-114454000D01*
X150039000Y-123524000D02*
X150039000Y-120240000D01*
X150039000Y-117758000D02*
X150039000Y-114474000D01*
X149999000Y-123503000D02*
X149999000Y-120240000D01*
X149999000Y-117758000D02*
X149999000Y-114495000D01*
X149959000Y-123482000D02*
X149959000Y-120240000D01*
X149959000Y-117758000D02*
X149959000Y-114516000D01*
X149919000Y-123461000D02*
X149919000Y-120240000D01*
X149919000Y-117758000D02*
X149919000Y-114537000D01*
X149879000Y-123439000D02*
X149879000Y-120240000D01*
X149879000Y-117758000D02*
X149879000Y-114559000D01*
X149839000Y-123416000D02*
X149839000Y-120240000D01*
X149839000Y-117758000D02*
X149839000Y-114582000D01*
X149799000Y-123394000D02*
X149799000Y-120240000D01*
X149799000Y-117758000D02*
X149799000Y-114604000D01*
X149759000Y-123370000D02*
X149759000Y-120240000D01*
X149759000Y-117758000D02*
X149759000Y-114628000D01*
X149719000Y-123346000D02*
X149719000Y-120240000D01*
X149719000Y-117758000D02*
X149719000Y-114652000D01*
X149679000Y-123322000D02*
X149679000Y-120240000D01*
X149679000Y-117758000D02*
X149679000Y-114676000D01*
X149639000Y-123297000D02*
X149639000Y-120240000D01*
X149639000Y-117758000D02*
X149639000Y-114701000D01*
X149599000Y-123272000D02*
X149599000Y-120240000D01*
X149599000Y-117758000D02*
X149599000Y-114726000D01*
X149559000Y-123246000D02*
X149559000Y-120240000D01*
X149559000Y-117758000D02*
X149559000Y-114752000D01*
X149519000Y-123220000D02*
X149519000Y-120240000D01*
X149519000Y-117758000D02*
X149519000Y-114778000D01*
X149479000Y-123193000D02*
X149479000Y-120240000D01*
X149479000Y-117758000D02*
X149479000Y-114805000D01*
X149439000Y-123165000D02*
X149439000Y-120240000D01*
X149439000Y-117758000D02*
X149439000Y-114833000D01*
X149399000Y-123137000D02*
X149399000Y-120240000D01*
X149399000Y-117758000D02*
X149399000Y-114861000D01*
X149359000Y-123109000D02*
X149359000Y-120240000D01*
X149359000Y-117758000D02*
X149359000Y-114889000D01*
X149319000Y-123079000D02*
X149319000Y-120240000D01*
X149319000Y-117758000D02*
X149319000Y-114919000D01*
X149279000Y-123049000D02*
X149279000Y-120240000D01*
X149279000Y-117758000D02*
X149279000Y-114949000D01*
X149239000Y-123019000D02*
X149239000Y-120240000D01*
X149239000Y-117758000D02*
X149239000Y-114979000D01*
X149199000Y-122988000D02*
X149199000Y-120240000D01*
X149199000Y-117758000D02*
X149199000Y-115010000D01*
X149159000Y-122956000D02*
X149159000Y-120240000D01*
X149159000Y-117758000D02*
X149159000Y-115042000D01*
X149119000Y-122924000D02*
X149119000Y-120240000D01*
X149119000Y-117758000D02*
X149119000Y-115074000D01*
X149079000Y-122891000D02*
X149079000Y-120240000D01*
X149079000Y-117758000D02*
X149079000Y-115107000D01*
X149039000Y-122857000D02*
X149039000Y-120240000D01*
X149039000Y-117758000D02*
X149039000Y-115141000D01*
X148999000Y-122823000D02*
X148999000Y-120240000D01*
X148999000Y-117758000D02*
X148999000Y-115175000D01*
X148959000Y-122788000D02*
X148959000Y-120240000D01*
X148959000Y-117758000D02*
X148959000Y-115210000D01*
X148919000Y-122752000D02*
X148919000Y-120240000D01*
X148919000Y-117758000D02*
X148919000Y-115246000D01*
X148879000Y-122715000D02*
X148879000Y-120240000D01*
X148879000Y-117758000D02*
X148879000Y-115283000D01*
X148839000Y-122678000D02*
X148839000Y-120240000D01*
X148839000Y-117758000D02*
X148839000Y-115320000D01*
X148799000Y-122639000D02*
X148799000Y-120240000D01*
X148799000Y-117758000D02*
X148799000Y-115359000D01*
X148759000Y-122600000D02*
X148759000Y-120240000D01*
X148759000Y-117758000D02*
X148759000Y-115398000D01*
X148719000Y-122560000D02*
X148719000Y-120240000D01*
X148719000Y-117758000D02*
X148719000Y-115438000D01*
X148679000Y-122519000D02*
X148679000Y-120240000D01*
X148679000Y-117758000D02*
X148679000Y-115479000D01*
X148639000Y-122477000D02*
X148639000Y-120240000D01*
X148639000Y-117758000D02*
X148639000Y-115521000D01*
X148599000Y-122435000D02*
X148599000Y-115563000D01*
X148559000Y-122391000D02*
X148559000Y-115607000D01*
X148519000Y-122346000D02*
X148519000Y-115652000D01*
X148479000Y-122300000D02*
X148479000Y-115698000D01*
X148439000Y-122253000D02*
X148439000Y-115745000D01*
X148399000Y-122205000D02*
X148399000Y-115793000D01*
X148359000Y-122155000D02*
X148359000Y-115843000D01*
X148319000Y-122105000D02*
X148319000Y-115893000D01*
X148279000Y-122053000D02*
X148279000Y-115945000D01*
X148239000Y-121999000D02*
X148239000Y-115999000D01*
X148199000Y-121944000D02*
X148199000Y-116054000D01*
X148159000Y-121888000D02*
X148159000Y-116110000D01*
X148119000Y-121829000D02*
X148119000Y-116169000D01*
X148079000Y-121769000D02*
X148079000Y-116229000D01*
X148039000Y-121708000D02*
X148039000Y-116290000D01*
X147999000Y-121644000D02*
X147999000Y-116354000D01*
X147959000Y-121578000D02*
X147959000Y-116420000D01*
X147919000Y-121509000D02*
X147919000Y-116489000D01*
X147879000Y-121438000D02*
X147879000Y-116560000D01*
X147839000Y-121364000D02*
X147839000Y-116634000D01*
X147799000Y-121288000D02*
X147799000Y-116710000D01*
X147759000Y-121208000D02*
X147759000Y-116790000D01*
X147719000Y-121124000D02*
X147719000Y-116874000D01*
X147679000Y-121036000D02*
X147679000Y-116962000D01*
X147639000Y-120943000D02*
X147639000Y-117055000D01*
X147599000Y-120845000D02*
X147599000Y-117153000D01*
X147559000Y-120741000D02*
X147559000Y-117257000D01*
X147519000Y-120629000D02*
X147519000Y-117369000D01*
X147479000Y-120509000D02*
X147479000Y-117489000D01*
X147439000Y-120377000D02*
X147439000Y-117621000D01*
X147399000Y-120229000D02*
X147399000Y-117769000D01*
X147359000Y-120061000D02*
X147359000Y-117937000D01*
X147319000Y-119861000D02*
X147319000Y-118137000D01*
X147279000Y-119598000D02*
X147279000Y-118400000D01*
X157480000Y-118999000D02*
G75*
G03*
X157480000Y-118999000I-5120000J0D01*
G01*
%TO.C,C6*%
X162399200Y-85170400D02*
X162399200Y-91410400D01*
X162399200Y-85170400D02*
X180639200Y-85170400D01*
X162399200Y-91410400D02*
X180639200Y-91410400D01*
X180639200Y-85170400D02*
X180639200Y-91410400D01*
%TO.C,C1*%
X180532000Y-98576000D02*
X174292000Y-98576000D01*
X180532000Y-98576000D02*
X180532000Y-116816000D01*
X174292000Y-98576000D02*
X174292000Y-116816000D01*
X180532000Y-116816000D02*
X174292000Y-116816000D01*
%TD*%
M02*
